<?xml version="1.0" encoding="utf-8"?>
<COLLADA xmlns="http://www.collada.org/2005/11/COLLADASchema" version="1.4.1" xmlns:xsi="http://www.w3.org/2001/XMLSchema-instance">
  <asset>
    <contributor>
      <author>Blender User</author>
      <authoring_tool>Blender 4.2.18 LTS commit date:2026-02-16, commit time:13:37, hash:d71e3422e438</authoring_tool>
    </contributor>
    <created>2026-02-23T15:36:20</created>
    <modified>2026-02-23T15:36:20</modified>
    <unit name="meter" meter="1"/>
    <up_axis>Z_UP</up_axis>
  </asset>
  <library_cameras>
    <camera id="Camera-camera" name="Camera">
      <optics>
        <technique_common>
          <perspective>
            <xfov sid="xfov">39.59775</xfov>
            <aspect_ratio>1.777778</aspect_ratio>
            <znear sid="znear">0.1</znear>
            <zfar sid="zfar">100</zfar>
          </perspective>
        </technique_common>
      </optics>
      <extra>
        <technique profile="blender">
          <shiftx sid="shiftx" type="float">0</shiftx>
          <shifty sid="shifty" type="float">0</shifty>
          <dof_distance sid="dof_distance" type="float">10</dof_distance>
        </technique>
      </extra>
    </camera>
  </library_cameras>
  <library_lights>
    <light id="Light-light" name="Light">
      <technique_common>
        <point>
          <color sid="color">1000 1000 1000</color>
          <constant_attenuation>1</constant_attenuation>
          <linear_attenuation>0</linear_attenuation>
          <quadratic_attenuation>0</quadratic_attenuation>
        </point>
      </technique_common>
      <extra>
        <technique profile="blender">
          <type sid="type" type="int">0</type>
          <flag sid="flag" type="int">0</flag>
          <mode sid="mode" type="int">2097153</mode>
          <red sid="red" type="float">1</red>
          <green sid="green" type="float">1</green>
          <blue sid="blue" type="float">1</blue>
          <shadow_r sid="blender_shadow_r" type="float">0</shadow_r>
          <shadow_g sid="blender_shadow_g" type="float">0</shadow_g>
          <shadow_b sid="blender_shadow_b" type="float">0</shadow_b>
          <energy sid="blender_energy" type="float">1000</energy>
          <spotsize sid="spotsize" type="float">75</spotsize>
          <spotblend sid="spotblend" type="float">0.15</spotblend>
          <clipsta sid="clipsta" type="float">0.04999995</clipsta>
          <clipend sid="clipend" type="float">30.002</clipend>
          <bias sid="bias" type="float">1</bias>
          <radius sid="radius" type="float">0.1</radius>
          <area_shape sid="area_shape" type="int">1</area_shape>
          <area_size sid="area_size" type="float">0.1</area_size>
          <area_sizey sid="area_sizey" type="float">0.1</area_sizey>
          <area_sizez sid="area_sizez" type="float">1</area_sizez>
        </technique>
      </extra>
    </light>
  </library_lights>
  <library_effects>
    <effect id="Material_001-effect">
      <profile_COMMON>
        <technique sid="common">
          <lambert>
            <emission>
              <color sid="emission">0 0 0 1</color>
            </emission>
            <diffuse>
              <color sid="diffuse">0.9241655 0.9241655 0.9241655 1</color>
            </diffuse>
            <index_of_refraction>
              <float sid="ior">1</float>
            </index_of_refraction>
          </lambert>
        </technique>
      </profile_COMMON>
    </effect>
  </library_effects>
  <library_images/>
  <library_materials>
    <material id="Material_001-material" name="Material.001">
      <instance_effect url="#Material_001-effect"/>
    </material>
  </library_materials>
  <library_geometries>
    <geometry id="Bounding_box_area-mesh" name="Bounding box area">
      <mesh>
        <source id="Bounding_box_area-mesh-positions">
          <float_array id="Bounding_box_area-mesh-positions-array" count="1200">-1875 -280 -925 -1875 -280 -25 -1880 -280 -925 -1880 -280 -25 -1880 -280 -975 -1880 -280 -1875 -1875 -280 -975 -1875 -280 -1875 -1880 -280 -1925 -1880 -280 -2825 -1875 -280 -1925 -1875 -280 -2825 -1875 -280 975 -1875 -280 1875 -1880 -280 975 -1880 -280 1875 725.0002 -280 -3255 1375 -280 -3255 725.0002 -280 -3250 1375 -280 -3250 -1875 -280 -2875 -1880 -280 -2875 -1875 -280 -3250 -1880 -280 -3255 -1425 -280 -3250 -1425 -280 -3255 675.0002 -280 -3250 24.99992 -280 -3250 675.0002 -280 -3255 24.99992 -280 -3255 -1880 -280 925 -1880 -280 25 -1875 -280 925 -1875 -280 25 -1875 -280 1925 -1875 -280 2825 -1880 -280 1925 -1880 -280 2825 -1425 -280 3250 -1425 -280 3255 -1875 -280 3250 -1880 -280 3255 -1875 -280 2875 -1880 -280 2875 1875 -280 2825 1875 -280 1925 1880 -280 2825 1880 -280 1925 1875 -280 1875 1875 -280 975 1880 -280 1875 1880 -280 975 1875 -280 -975 1875 -280 -1875 1880 -280 -975 1880 -280 -1875 1875 -280 -1925 1875 -280 -2825 1880 -280 -1925 1880 -280 -2825 1425 -280 -3250 1425 -280 -3255 1875 -280 -3250 1880 -280 -3255 1875 -280 -2875 1880 -280 -2875 1875 -280 925 1875 -280 25 1880 -280 925 1880 -280 25 24.99992 -280 3250 675.0002 -280 3250 24.99992 -280 3255 675.0002 -280 3255 725.0002 -280 3250 1375 -280 3250 725.0002 -280 3255 1375 -280 3255 1875 -280 2875 1880 -280 2875 1875 -280 3250 1880 -280 3255 1425 -280 3250 1425 -280 3255 -1375 -280 -3255 -725.0001 -280 -3255 -1375 -280 -3250 -725.0001 -280 -3250 -1375 -280 3250 -725.0001 -280 3250 -1375 -280 3255 -725.0001 -280 3255 -25.00008 -280 3255 -675.0001 -280 3255 -25.00008 -280 3250 -675.0001 -280 3250 1880 -280 -925 1880 -280 -25 1875 -280 -925 1875 -280 -25 -1880 290 -3255 -1880 -230 -2875 -1880 -230 -2825 -1880 -230 -1925 -1880 -230 -1875 -1880 290 3255 -1880 -230 -925 -1880 -230 -25 -1880 -230 25 -1880 -230 -975 -1880 -230 975 -1880 -230 1875 -1880 -230 1925 -1880 -230 925 -1880 -230 2875 -1880 -230 2825 -1425 -230 3255 -1375 -230 3255 -725.0001 -230 3255 -675.0001 -230 3255 24.99992 -230 3255 675.0002 -230 3255 -25.00008 -230 3255 1880 290 3255 725.0002 -230 3255 1425 -230 3255 1375 -230 3255 1880 -230 2825 1880 -230 1925 1880 -230 2875 1880 290 -3255 1880 -230 1875 1880 -230 925 1880 -230 25 1880 -230 -25 1880 -230 975 1880 -230 -975 1880 -230 -1875 1880 -230 -1925 1880 -230 -925 1880 -230 -2875 1880 -230 -2825 -25.00008 -230 -3255 -25.00008 -280 -3255 -675.0001 -280 -3255 1375 -230 -3255 725.0002 -230 -3255 1425 -230 -3255 675.0002 -230 -3255 -675.0001 -230 -3255 -725.0001 -230 -3255 24.99992 -230 -3255 -1425 -230 -3255 -1375 -230 -3255 1875 290 -3250 -1875 290 -3250 -1875 290 3250 1875 290 3250 -25.00008 -280 -3250 -675.0001 -280 -3250 -1875 -230 -1875 -1875 -230 -1925 -1875 -230 -975 -1875 -230 2825 -1875 -230 1925 -1875 -230 -2875 -1875 -230 -2825 -1875 -230 2875 -1875 -230 1875 -1875 -230 925 -1875 -230 25 -1875 -230 -25 -1875 -230 -925 -1875 -230 975 24.99992 -230 3250 -25.00008 -230 3250 675.0002 -230 3250 -725.0001 -230 3250 -675.0001 -230 3250 1425 -230 3250 1375 -230 3250 725.0002 -230 3250 -1425 -230 3250 -1375 -230 3250 1875 -230 -2825 1875 -230 -1925 1875 -230 -2875 1875 -230 -1875 1875 -230 -925 1875 -230 -25 1875 -230 25 1875 -230 -975 1875 -230 975 1875 -230 1875 1875 -230 1925 1875 -230 925 1875 -230 2875 1875 -230 2825 675.0002 -230 -3250 725.0002 -230 -3250 24.99992 -230 -3250 -1375 -230 -3250 -725.0001 -230 -3250 1425 -230 -3250 1375 -230 -3250 -1425 -230 -3250 -675.0001 -230 -3250 -25.00008 -230 -3250 1425 -230 -3257.5 1425 -230 -3245 1425 -290 -3245 1425 -290 -3257.5 1375 -230 -3257.5 1375 -290 -3257.5 1375 -290 -3245 1375 -230 -3245 -725.0001 -230 -3257.5 -725.0001 -290 -3257.5 -725.0001 -290 -3245 -725.0001 -230 -3245 -675.0001 -230 -3257.5 -675.0001 -230 -3245 -675.0001 -290 -3245 -675.0001 -290 -3257.5 24.99992 -230 -3257.5 24.99992 -230 -3245 24.99992 -290 -3245 24.99992 -290 -3257.5 -25.00008 -230 -3257.5 -25.00008 -290 -3257.5 -25.00008 -290 -3245 -25.00008 -230 -3245 -1425 -230 -3257.5 -1425 -290 -3257.5 -1425 -290 -3245 -1425 -230 -3245 -1375 -230 -3257.5 -1375 -230 -3245 -1375 -290 -3245 -1375 -290 -3257.5 725.0002 -230 -3257.5 725.0002 -230 -3245 725.0002 -290 -3245 725.0002 -290 -3257.5 675.0002 -230 -3257.5 675.0002 -290 -3257.5 675.0002 -290 -3245 675.0002 -230 -3245 1882.5 -230 -25 1882.5 -290 -25 1870 -290 -25 1870 -230 -25 1882.5 -230 25 1870 -230 25 1870 -290 25 1882.5 -290 25 1882.5 -230 925 1882.5 -290 925 1870 -290 925 1870 -230 925 1882.5 -230 975 1870 -230 975 1870 -290 975 1882.5 -290 975 1882.5 -230 -2875 1882.5 -290 -2875 1870 -290 -2875 1870 -230 -2875 1882.5 -230 -2825 1870 -230 -2825 1870 -290 -2825 1882.5 -290 -2825 1882.5 -230 -1925 1882.5 -290 -1925 1870 -290 -1925 1870 -230 -1925 1882.5 -230 -1875 1870 -230 -1875 1870 -290 -1875 1882.5 -290 -1875 1882.5 -230 -975 1882.5 -290 -975 1870 -290 -975 1870 -230 -975 1882.5 -230 -925 1870 -230 -925 1870 -290 -925 1882.5 -290 -925 1882.5 -230 1875 1882.5 -290 1875 1870 -290 1875 1870 -230 1875 1882.5 -230 1925 1870 -230 1925 1870 -290 1925 1882.5 -290 1925 1882.5 -230 2825 1882.5 -290 2825 1870 -290 2825 1870 -230 2825 1882.5 -230 2875 1870 -230 2875 1870 -290 2875 1882.5 -290 2875 -725.0001 -230 3257.5 -725.0001 -230 3245 -725.0001 -290 3245 -725.0001 -290 3257.5 -675.0001 -230 3257.5 -675.0001 -290 3257.5 -675.0001 -290 3245 -675.0001 -230 3245 -1425 -230 3257.5 -1425 -230 3245 -1425 -290 3245 -1425 -290 3257.5 -1375 -230 3257.5 -1375 -290 3257.5 -1375 -290 3245 -1375 -230 3245 1425 -230 3257.5 1425 -290 3257.5 1425 -290 3245 1425 -230 3245 1375 -230 3257.5 1375 -230 3245 1375 -290 3245 1375 -290 3257.5 725.0002 -230 3257.5 725.0002 -290 3257.5 725.0002 -290 3245 725.0002 -230 3245 675.0002 -230 3257.5 675.0002 -230 3245 675.0002 -290 3245 675.0002 -290 3257.5 24.99992 -230 3257.5 24.99992 -290 3257.5 24.99992 -290 3245 24.99992 -230 3245 -25.00008 -230 3257.5 -25.00008 -230 3245 -25.00008 -290 3245 -25.00008 -290 3257.5 -1882.5 -230 2875 -1882.5 -290 2875 -1870 -290 2875 -1870 -230 2875 -1882.5 -230 2825 -1870 -230 2825 -1870 -290 2825 -1882.5 -290 2825 -1882.5 -230 1925 -1882.5 -290 1925 -1870 -290 1925 -1870 -230 1925 -1882.5 -230 1875 -1870 -230 1875 -1870 -290 1875 -1882.5 -290 1875 -1882.5 -230 25 -1882.5 -290 25 -1870 -290 25 -1870 -230 25 -1882.5 -230 -25 -1870 -230 -25 -1870 -290 -25 -1882.5 -290 -25 -1882.5 -230 975 -1882.5 -290 975 -1870 -290 975 -1870 -230 975 -1882.5 -230 925 -1870 -230 925 -1870 -290 925 -1882.5 -290 925 -1882.5 -230 -2825 -1882.5 -290 -2825 -1870 -290 -2825 -1870 -230 -2825 -1882.5 -230 -2875 -1870 -230 -2875 -1870 -290 -2875 -1882.5 -290 -2875 -1882.5 -230 -1875 -1882.5 -290 -1875 -1870 -290 -1875 -1870 -230 -1875 -1882.5 -230 -1925 -1870 -230 -1925 -1870 -290 -1925 -1882.5 -290 -1925 -1882.5 -230 -925 -1882.5 -290 -925 -1870 -290 -925 -1870 -230 -925 -1882.5 -230 -975 -1870 -230 -975 -1870 -290 -975 -1882.5 -290 -975</float_array>
          <technique_common>
            <accessor source="#Bounding_box_area-mesh-positions-array" count="400" stride="3">
              <param name="X" type="float"/>
              <param name="Y" type="float"/>
              <param name="Z" type="float"/>
            </accessor>
          </technique_common>
        </source>
        <source id="Bounding_box_area-mesh-normals">
          <float_array id="Bounding_box_area-mesh-normals-array" count="2400">0 -1 0 0 -1 0 0 -1 0 0 -1 0 0 -1 0 0 -1 0 0 -1 0 0 -1 0 0 -1 0 0 -1 0 0 -1 0 0 -1 0 0 -1 0 0 -1 0 0 -1 0 0 -1 0 0 -1 0 0 -1 0 0 -1 0 0 -1 0 0 -1 0 0 -1 0 0 -1 0 0 -1 0 0 -1 0 0 -1 0 0 -1 0 0 -1 0 0 -1 0 0 -1 0 0 -1 0 0 -1 0 0 -1 0 0 -1 0 0 -1 0 0 -1 0 0 -1 0 0 -1 0 0 -1 0 0 -1 0 0 -1 0 0 -1 0 0 -1 0 0 -1 0 0 -1 0 0 -1 0 0 -1 0 0 -1 0 0 -1 0 0 -1 0 0 -1 0 0 -1 0 0 -1 0 0 -1 0 -1 0 0 -1 0 0 -1 0 0 -1 0 0 -1 0 0 -1 0 0 -1 0 0 -1 0 0 -1 0 0 -1 0 0 -1 0 0 -1 0 0 -1 0 0 -1 0 0 -1 0 0 -1 0 0 -1 0 0 -1 0 0 -1 0 0 -1 0 0 -1 0 0 -1 0 0 -1 0 0 -1 0 0 -1 0 0 -1 0 0 -1 0 0 -1 0 0 -1 0 0 -1 0 0 0 0 1 0 0 1 0 0 1 0 0 1 0 0 1 0 0 1 0 0 1 0 0 1 0 0 1 0 0 1 0 0 1 0 0 1 0 0 1 0 0 1 0 0 1 0 0 1 0 0 1 0 0 1 0 0 1 0 0 1 0 0 1 0 0 1 1 0 0 1 0 0 1 0 0 1 0 0 1 0 0 1 0 0 1 0 0 1 0 0 1 0 0 1 0 0 1 0 0 1 0 0 1 0 0 1 0 0 1 0 0 1 0 0 1 0 0 1 0 0 1 0 0 1 0 0 1 0 0 1 0 0 1 0 0 1 0 0 1 0 0 1 0 0 1 0 0 1 0 0 1 0 0 1 0 0 0 0 -1 0 0 -1 0 0 -1 0 0 -1 0 0 -1 0 0 -1 0 0 -1 0 0 -1 0 0 -1 0 0 -1 0 0 -1 0 0 -1 0 0 -1 0 0 -1 0 0 -1 0 0 -1 0 0 -1 0 0 -1 0 0 -1 0 0 -1 0 0 -1 0 0 -1 0 1 0 0 1 0 0 1 0 0 1 0 0 1 0 0 1 0 0 1 0 0 1 0 0 -1 0 0 -1 0 1 0 0 1 0 0 1 0 0 1 0 0 1 0 0 1 0 0 1 0 0 1 0 0 1 0 0 1 0 0 1 0 0 1 0 0 1 0 0 1 0 0 1 0 0 1 0 0 1 0 0 1 0 0 1 0 0 1 0 0 1 0 0 1 0 0 1 0 0 1 0 0 1 0 0 1 0 0 1 0 0 1 0 0 1 0 0 1 0 0 0 0 -1 0 0 -1 0 0 -1 0 0 -1 0 0 -1 0 0 -1 0 0 -1 0 0 -1 0 0 -1 0 0 -1 0 0 -1 0 0 -1 0 0 -1 0 0 -1 0 0 -1 0 0 -1 0 0 -1 0 0 -1 0 0 -1 0 0 -1 0 0 -1 0 0 -1 -1 0 0 -1 0 0 -1 0 0 -1 0 0 -1 0 0 -1 0 0 -1 0 0 -1 0 0 -1 0 0 -1 0 0 -1 0 0 -1 0 0 -1 0 0 -1 0 0 -1 0 0 -1 0 0 -1 0 0 -1 0 0 -1 0 0 -1 0 0 -1 0 0 -1 0 0 -1 0 0 -1 0 0 -1 0 0 -1 0 0 -1 0 0 -1 0 0 -1 0 0 -1 0 0 0 0 1 0 0 1 0 0 1 0 0 1 0 0 1 0 0 1 0 0 1 0 0 1 0 0 1 0 0 1 0 0 1 0 0 1 0 0 1 0 0 1 0 0 1 0 0 1 0 0 1 0 0 1 0 0 1 0 0 1 0 0 1 0 0 1 1 0 0 1 0 0 1 0 0 1 0 0 1 0 0 1 0 0 -1 0 0 -1 0 0 -1 0 0 -1 0 0 -1 0 0 -1 0 0 0 1 0 0 1 0 0 0 -1 0 0 -1 0 0 1 0 0 1 0 -1 0 0 -1 0 0 1 0 0 1 0 -1 0 0 -1 0 0 -1 0 0 -1 0 0 -1 0 0 -1 0 0 1 0 0 1 0 0 1 0 0 1 0 0 1 0 0 1 0 0 0 1 0 0 1 0 0 0 -1 0 0 -1 0 0 1 0 0 1 0 -1 0 0 -1 0 0 1 0 0 1 0 1 0 0 1 0 0 1 0 0 1 0 0 1 0 0 1 0 0 -1 0 0 -1 0 0 -1 0 0 -1 0 0 -1 0 0 -1 0 0 0 1 0 0 1 0 0 0 -1 0 0 -1 0 0 1 0 0 1 0 -1 0 0 -1 0 0 1 0 0 1 0 -1 0 0 -1 0 0 -1 0 0 -1 0 0 -1 0 0 -1 0 0 1 0 0 1 0 0 1 0 0 1 0 0 1 0 0 1 0 0 0 1 0 0 1 0 0 0 -1 0 0 -1 0 0 1 0 0 1 0 -1 0 0 -1 0 0 1 0 0 1 0 1 0 0 1 0 0 1 0 0 1 0 0 1 0 0 1 0 0 -1 0 0 -1 0 0 -1 0 0 -1 0 0 -1 0 0 -1 0 0 0 1 0 0 1 0 0 0 -1 0 0 -1 0 0 1 0 0 1 0 -1 0 0 -1 0 0 1 0 0 1 0 0 0 -1 0 0 -1 0 0 -1 0 0 -1 0 0 -1 0 0 -1 0 0 1 0 0 1 0 0 1 0 0 1 0 0 1 0 0 1 0 1 0 0 1 0 -1 0 0 -1 0 0 1 0 0 1 0 0 0 -1 0 0 -1 0 0 1 0 0 1 0 0 0 -1 0 0 -1 0 0 -1 0 0 -1 0 0 -1 0 0 -1 0 0 1 0 0 1 0 0 1 0 0 1 0 0 1 0 0 1 0 1 0 0 1 0 -1 0 0 -1 0 0 1 0 0 1 0 0 0 -1 0 0 -1 0 0 1 0 0 1 0 0 0 -1 0 0 -1 0 0 -1 0 0 -1 0 0 -1 0 0 -1 0 0 1 0 0 1 0 0 1 0 0 1 0 0 1 0 0 1 0 1 0 0 1 0 -1 0 0 -1 0 0 1 0 0 1 0 0 0 -1 0 0 -1 0 0 1 0 0 1 0 0 0 -1 0 0 -1 0 0 -1 0 0 -1 0 0 -1 0 0 -1 0 0 1 0 0 1 0 0 1 0 0 1 0 0 1 0 0 1 0 1 0 0 1 0 -1 0 0 -1 0 0 1 0 0 1 0 0 0 -1 0 0 -1 0 0 1 0 0 1 0 0 0 -1 0 0 -1 0 0 -1 0 0 -1 0 0 -1 0 0 -1 0 0 1 0 0 1 0 0 1 0 0 1 0 0 1 0 0 1 0 1 0 0 1 0 -1 0 0 -1 0 0 1 0 0 1 0 0 0 -1 0 0 -1 0 0 1 0 0 1 0 0 0 -1 0 0 -1 0 0 -1 0 0 -1 0 0 -1 0 0 -1 0 0 1 0 0 1 0 0 1 0 0 1 0 0 1 0 0 1 0 1 0 0 1 0 -1 0 0 -1 0 0 1 0 0 1 0 0 0 -1 0 0 -1 0 0 1 0 0 1 0 0 0 -1 0 0 -1 0 0 -1 0 0 -1 0 0 -1 0 0 -1 0 0 1 0 0 1 0 0 1 0 0 1 0 0 1 0 0 1 0 1 0 0 1 0 -1 0 0 -1 0 0 1 0 0 1 0 0 0 -1 0 0 -1 0 0 1 0 0 1 0 -1 0 0 -1 0 0 -1 0 0 -1 0 0 -1 0 0 -1 0 0 1 0 0 1 0 0 1 0 0 1 0 0 1 0 0 1 0 0 0 1 0 0 1 0 0 0 1 0 0 1 0 0 -1 0 0 -1 0 -1 0 0 -1 0 0 1 0 0 1 0 -1 0 0 -1 0 0 -1 0 0 -1 0 0 -1 0 0 -1 0 0 1 0 0 1 0 0 1 0 0 1 0 0 1 0 0 1 0 0 0 1 0 0 1 0 0 0 1 0 0 1 0 0 -1 0 0 -1 0 -1 0 0 -1 0 0 1 0 0 1 0 1 0 0 1 0 0 1 0 0 1 0 0 1 0 0 1 0 0 -1 0 0 -1 0 0 -1 0 0 -1 0 0 -1 0 0 -1 0 0 0 1 0 0 1 0 0 0 1 0 0 1 0 0 -1 0 0 -1 0 -1 0 0 -1 0 0 1 0 0 1 0 1 0 0 1 0 0 1 0 0 1 0 0 1 0 0 1 0 0 -1 0 0 -1 0 0 -1 0 0 -1 0 0 -1 0 0 -1 0 0 0 1 0 0 1 0 0 0 1 0 0 1 0 0 -1 0 0 -1 0 -1 0 0 -1 0 0 1 0 0 1 0 1 0 0 1 0 0 1 0 0 1 0 0 1 0 0 1 0 0 -1 0 0 -1 0 0 -1 0 0 -1 0 0 -1 0 0 -1 0 0 0 1 0 0 1 0 0 0 1 0 0 1 0 0 -1 0 0 -1 0 -1 0 0 -1 0 0 1 0 0 1 0 0 0 1 0 0 1 0 0 1 0 0 1 0 0 1 0 0 1 0 0 -1 0 0 -1 0 0 -1 0 0 -1 0 0 -1 0 0 -1 0 1 0 0 1 0 -1 0 0 -1 0 0 1 0 0 1 0 0 0 -1 0 0 -1 0 0 1 0 0 1 0 0 0 1 0 0 1 0 0 1 0 0 1 0 0 1 0 0 1 0 0 -1 0 0 -1 0 0 -1 0 0 -1 0 0 -1 0 0 -1 0 1 0 0 1 0 -1 0 0 -1 0 0 1 0 0 1 0 0 0 -1 0 0 -1 0 0 1 0 0 1 0 0 0 1 0 0 1 0 0 1 0 0 1 0 0 1 0 0 1 0 0 -1 0 0 -1 0 0 -1 0 0 -1 0 0 -1 0 0 -1 0 1 0 0 1 0 -1 0 0 -1 0 0 1 0 0 1 0 0 0 -1 0 0 -1 0 0 1 0 0 1 0 0 0 1 0 0 1 0 0 1 0 0 1 0 0 1 0 0 1 0 0 -1 0 0 -1 0 0 -1 0 0 -1 0 0 -1 0 0 -1 0 1 0 0 1 0 -1 0 0 -1 0 0 1 0 0 1 0 0 0 -1 0 0 -1 0 0 1 0 0 1 0 0 0 1 0 0 1 0 0 1 0 0 1 0 0 1 0 0 1 0 0 -1 0 0 -1 0 0 -1 0 0 -1 0 0 -1 0 0 -1 0 1 0 0 1 0 -1 0 0 -1 0 0 1 0 0 1 0 0 0 -1 0 0 -1 0 0 1 0 0 1 0 0 0 1 0 0 1 0 0 1 0 0 1 0 0 1 0 0 1 0 0 -1 0 0 -1 0 0 -1 0 0 -1 0 0 -1 0 0 -1 0 1 0 0 1 0 -1 0 0 -1 0 0 1 0 0 1 0 0 0 -1 0 0 -1 0 0 1 0 0 1 0 0 0 1 0 0 1 0 0 1 0 0 1 0 0 1 0 0 1 0 0 -1 0 0 -1 0 0 -1 0 0 -1 0 0 -1 0 0 -1 0 1 0 0 1 0 -1 0 0 -1 0 0 1 0 0 1 0 0 0 -1 0 0 -1 0 0 1 0 0 1 0</float_array>
          <technique_common>
            <accessor source="#Bounding_box_area-mesh-normals-array" count="800" stride="3">
              <param name="X" type="float"/>
              <param name="Y" type="float"/>
              <param name="Z" type="float"/>
            </accessor>
          </technique_common>
        </source>
        <vertices id="Bounding_box_area-mesh-vertices">
          <input semantic="POSITION" source="#Bounding_box_area-mesh-positions"/>
        </vertices>
        <triangles material="Material_001-material" count="800">
          <input semantic="VERTEX" source="#Bounding_box_area-mesh-vertices" offset="0"/>
          <input semantic="NORMAL" source="#Bounding_box_area-mesh-normals" offset="1"/>
          <p>0 0 1 0 2 0 2 1 1 1 3 1 4 2 5 2 6 2 6 3 5 3 7 3 8 4 9 4 10 4 10 5 9 5 11 5 12 6 13 6 14 6 14 7 13 7 15 7 16 8 17 8 18 8 18 9 17 9 19 9 20 10 21 10 22 10 22 11 21 11 23 11 22 12 23 12 24 12 24 13 23 13 25 13 26 14 27 14 28 14 28 15 27 15 29 15 30 16 31 16 32 16 32 17 31 17 33 17 34 18 35 18 36 18 36 19 35 19 37 19 38 20 39 20 40 20 40 21 39 21 41 21 40 22 41 22 42 22 42 23 41 23 43 23 44 24 45 24 46 24 46 25 45 25 47 25 48 26 49 26 50 26 50 27 49 27 51 27 52 28 53 28 54 28 54 29 53 29 55 29 56 30 57 30 58 30 58 31 57 31 59 31 60 32 61 32 62 32 62 33 61 33 63 33 62 34 63 34 64 34 64 35 63 35 65 35 66 36 67 36 68 36 68 37 67 37 69 37 70 38 71 38 72 38 72 39 71 39 73 39 74 40 75 40 76 40 76 41 75 41 77 41 78 42 79 42 80 42 80 43 79 43 81 43 80 44 81 44 82 44 82 45 81 45 83 45 84 46 85 46 86 46 86 47 85 47 87 47 88 48 89 48 90 48 90 49 89 49 91 49 92 50 93 50 94 50 94 51 93 51 95 51 96 52 97 52 98 52 98 53 97 53 99 53 23 54 21 54 100 54 100 55 21 55 101 55 100 56 101 56 102 56 9 57 8 57 102 57 102 58 8 58 103 58 102 59 103 59 100 59 100 60 103 60 104 60 100 61 104 61 105 61 106 62 2 62 3 62 107 63 108 63 105 63 3 64 107 64 106 64 106 65 107 65 105 65 106 66 105 66 109 66 109 67 105 67 104 67 109 68 104 68 4 68 4 69 104 69 5 69 110 70 14 70 15 70 111 71 112 71 105 71 15 72 111 72 110 72 110 73 111 73 105 73 110 74 105 74 113 74 113 75 105 75 108 75 113 76 108 76 30 76 30 77 108 77 31 77 43 78 41 78 114 78 114 79 41 79 105 79 114 80 105 80 115 80 115 81 105 81 112 81 115 82 112 82 37 82 37 83 112 83 36 83 41 84 39 84 105 84 105 85 39 85 116 85 105 86 116 86 117 86 90 87 91 87 117 87 117 88 91 88 118 88 117 89 118 89 105 89 105 90 118 90 119 90 72 91 73 91 120 91 120 92 73 92 121 92 93 93 92 93 119 93 119 94 92 94 122 94 119 95 122 95 105 95 105 96 122 96 120 96 105 97 120 97 123 97 123 98 120 98 121 98 123 99 121 99 124 99 83 100 81 100 125 100 125 101 81 101 123 101 125 102 123 102 126 102 126 103 123 103 124 103 126 104 124 104 77 104 77 105 124 105 76 105 123 106 81 106 79 106 46 107 47 107 127 107 127 108 47 108 128 108 79 109 129 109 123 109 123 110 129 110 127 110 123 111 127 111 130 111 130 112 127 112 128 112 130 113 128 113 131 113 132 114 68 114 69 114 133 115 134 115 130 115 69 116 133 116 132 116 132 117 133 117 130 117 132 118 130 118 135 118 135 119 130 119 131 119 135 120 131 120 51 120 51 121 131 121 50 121 136 122 54 122 55 122 137 123 138 123 130 123 55 124 137 124 136 124 136 125 137 125 130 125 136 126 130 126 139 126 139 127 130 127 134 127 139 128 134 128 96 128 96 129 134 129 97 129 65 130 63 130 140 130 140 131 63 131 130 131 140 132 130 132 141 132 141 133 130 133 138 133 141 134 138 134 59 134 59 135 138 135 58 135 130 136 63 136 61 136 142 137 143 137 144 137 17 138 16 138 145 138 145 139 16 139 146 139 61 140 147 140 130 140 130 141 147 141 145 141 130 142 145 142 100 142 100 143 145 143 146 143 100 144 146 144 148 144 149 145 150 145 100 145 144 146 149 146 142 146 142 147 149 147 100 147 142 148 100 148 151 148 151 149 100 149 148 149 151 150 148 150 29 150 29 151 148 151 28 151 25 152 23 152 152 152 152 153 23 153 100 153 152 154 100 154 153 154 153 155 100 155 150 155 153 156 150 156 84 156 84 157 150 157 85 157 154 158 130 158 155 158 155 159 130 159 100 159 155 160 100 160 156 160 156 161 100 161 105 161 156 162 105 162 157 162 157 163 105 163 123 163 157 164 123 164 154 164 154 165 123 165 130 165 158 166 159 166 143 166 143 167 159 167 144 167 156 168 40 168 42 168 160 169 161 169 155 169 162 170 6 170 7 170 35 171 34 171 163 171 163 172 34 172 164 172 20 173 22 173 165 173 165 174 22 174 155 174 165 175 155 175 166 175 166 176 155 176 161 176 166 177 161 177 11 177 11 178 161 178 10 178 42 179 167 179 156 179 156 180 167 180 163 180 156 181 163 181 155 181 155 182 163 182 164 182 155 183 164 183 168 183 169 184 32 184 33 184 170 185 171 185 155 185 7 186 160 186 162 186 162 187 160 187 155 187 162 188 155 188 172 188 172 189 155 189 171 189 172 190 171 190 0 190 0 191 171 191 1 191 13 192 12 192 168 192 168 193 12 193 173 193 168 194 173 194 155 194 155 195 173 195 169 195 155 196 169 196 170 196 170 197 169 197 33 197 174 198 175 198 156 198 157 199 80 199 82 199 176 200 71 200 70 200 177 201 156 201 178 201 178 202 156 202 175 202 178 203 175 203 95 203 95 204 175 204 94 204 82 205 179 205 157 205 157 206 179 206 180 206 157 207 180 207 156 207 70 208 174 208 176 208 176 209 174 209 156 209 176 210 156 210 181 210 181 211 156 211 180 211 181 212 180 212 74 212 74 213 180 213 75 213 38 214 40 214 182 214 182 215 40 215 156 215 182 216 156 216 183 216 183 217 156 217 177 217 183 218 177 218 88 218 88 219 177 219 89 219 154 220 62 220 64 220 57 221 56 221 184 221 184 222 56 222 185 222 64 223 186 223 154 223 154 224 186 224 184 224 154 225 184 225 157 225 157 226 184 226 185 226 157 227 185 227 187 227 188 228 98 228 99 228 189 229 190 229 157 229 99 230 189 230 188 230 188 231 189 231 157 231 188 232 157 232 191 232 191 233 157 233 187 233 191 234 187 234 52 234 52 235 187 235 53 235 192 236 49 236 48 236 193 237 194 237 157 237 67 238 66 238 190 238 190 239 66 239 195 239 190 240 195 240 157 240 157 241 195 241 192 241 157 242 192 242 193 242 193 243 192 243 48 243 78 244 80 244 196 244 196 245 80 245 157 245 196 246 157 246 197 246 197 247 157 247 194 247 197 248 194 248 44 248 44 249 194 249 45 249 155 250 22 250 24 250 198 251 199 251 154 251 200 252 27 252 26 252 86 253 87 253 201 253 201 254 87 254 202 254 60 255 62 255 203 255 203 256 62 256 154 256 203 257 154 257 204 257 204 258 154 258 199 258 204 259 199 259 19 259 19 260 199 260 18 260 24 261 205 261 155 261 155 262 205 262 201 262 155 263 201 263 154 263 154 264 201 264 202 264 154 265 202 265 206 265 26 266 198 266 200 266 200 267 198 267 154 267 200 268 154 268 207 268 207 269 154 269 206 269 207 270 206 270 158 270 158 271 206 271 159 271 208 272 147 272 61 272 203 273 209 273 60 273 60 274 209 274 210 274 60 275 210 275 61 275 61 276 210 276 211 276 61 277 211 277 208 277 145 278 212 278 17 278 17 279 212 279 213 279 17 280 213 280 19 280 19 281 213 281 214 281 19 282 214 282 204 282 204 283 214 283 215 283 208 284 212 284 147 284 147 285 212 285 145 285 208 286 211 286 212 286 212 287 211 287 213 287 215 288 214 288 209 288 209 289 214 289 210 289 210 290 214 290 211 290 211 291 214 291 213 291 204 292 215 292 203 292 203 293 215 293 209 293 150 294 216 294 85 294 85 295 216 295 217 295 85 296 217 296 87 296 87 297 217 297 218 297 87 298 218 298 202 298 202 299 218 299 219 299 220 300 149 300 144 300 206 301 221 301 159 301 159 302 221 302 222 302 159 303 222 303 144 303 144 304 222 304 223 304 144 305 223 305 220 305 149 306 220 306 150 306 150 307 220 307 216 307 220 308 223 308 216 308 216 309 223 309 217 309 219 310 218 310 221 310 221 311 218 311 222 311 223 312 222 312 217 312 217 313 222 313 218 313 219 314 221 314 202 314 202 315 221 315 206 315 224 316 151 316 29 316 200 317 225 317 27 317 27 318 225 318 226 318 27 319 226 319 29 319 29 320 226 320 227 320 29 321 227 321 224 321 142 322 228 322 143 322 143 323 228 323 229 323 143 324 229 324 158 324 158 325 229 325 230 325 158 326 230 326 207 326 207 327 230 327 231 327 224 328 228 328 151 328 151 329 228 329 142 329 224 330 227 330 228 330 228 331 227 331 229 331 231 332 230 332 225 332 225 333 230 333 226 333 226 334 230 334 227 334 227 335 230 335 229 335 207 336 231 336 200 336 200 337 231 337 225 337 152 338 232 338 25 338 25 339 232 339 233 339 25 340 233 340 24 340 24 341 233 341 234 341 24 342 234 342 205 342 205 343 234 343 235 343 236 344 153 344 84 344 201 345 237 345 86 345 86 346 237 346 238 346 86 347 238 347 84 347 84 348 238 348 239 348 84 349 239 349 236 349 153 350 236 350 152 350 152 351 236 351 232 351 236 352 239 352 232 352 232 353 239 353 233 353 235 354 234 354 237 354 237 355 234 355 238 355 239 356 238 356 233 356 233 357 238 357 234 357 235 358 237 358 205 358 205 359 237 359 201 359 240 360 146 360 16 360 199 361 241 361 18 361 18 362 241 362 242 362 18 363 242 363 16 363 16 364 242 364 243 364 16 365 243 365 240 365 148 366 244 366 28 366 28 367 244 367 245 367 28 368 245 368 26 368 26 369 245 369 246 369 26 370 246 370 198 370 198 371 246 371 247 371 240 372 244 372 146 372 146 373 244 373 148 373 240 374 243 374 244 374 244 375 243 375 245 375 247 376 246 376 241 376 241 377 246 377 242 377 242 378 246 378 243 378 243 379 246 379 245 379 198 380 247 380 199 380 199 381 247 381 241 381 134 382 248 382 97 382 97 383 248 383 249 383 97 384 249 384 99 384 99 385 249 385 250 385 99 386 250 386 189 386 189 387 250 387 251 387 252 388 133 388 69 388 190 389 253 389 67 389 67 390 253 390 254 390 67 391 254 391 69 391 69 392 254 392 255 392 69 393 255 393 252 393 133 394 252 394 134 394 134 395 252 395 248 395 251 396 250 396 253 396 253 397 250 397 254 397 252 398 255 398 248 398 248 399 255 399 249 399 249 400 255 400 250 400 250 401 255 401 254 401 251 402 253 402 189 402 189 403 253 403 190 403 132 404 256 404 68 404 68 405 256 405 257 405 68 406 257 406 66 406 66 407 257 407 258 407 66 408 258 408 195 408 195 409 258 409 259 409 260 410 135 410 51 410 192 411 261 411 49 411 49 412 261 412 262 412 49 413 262 413 51 413 51 414 262 414 263 414 51 415 263 415 260 415 135 416 260 416 132 416 132 417 260 417 256 417 259 418 258 418 261 418 261 419 258 419 262 419 260 420 263 420 256 420 256 421 263 421 257 421 257 422 263 422 258 422 258 423 263 423 262 423 259 424 261 424 195 424 195 425 261 425 192 425 140 426 264 426 65 426 65 427 264 427 265 427 65 428 265 428 64 428 64 429 265 429 266 429 64 430 266 430 186 430 186 431 266 431 267 431 268 432 141 432 59 432 184 433 269 433 57 433 57 434 269 434 270 434 57 435 270 435 59 435 59 436 270 436 271 436 59 437 271 437 268 437 141 438 268 438 140 438 140 439 268 439 264 439 267 440 266 440 269 440 269 441 266 441 270 441 268 442 271 442 264 442 264 443 271 443 265 443 265 444 271 444 266 444 266 445 271 445 270 445 267 446 269 446 186 446 186 447 269 447 184 447 138 448 272 448 58 448 58 449 272 449 273 449 58 450 273 450 56 450 56 451 273 451 274 451 56 452 274 452 185 452 185 453 274 453 275 453 276 454 137 454 55 454 187 455 277 455 53 455 53 456 277 456 278 456 53 457 278 457 55 457 55 458 278 458 279 458 55 459 279 459 276 459 137 460 276 460 138 460 138 461 276 461 272 461 275 462 274 462 277 462 277 463 274 463 278 463 276 464 279 464 272 464 272 465 279 465 273 465 273 466 279 466 274 466 274 467 279 467 278 467 275 468 277 468 185 468 185 469 277 469 187 469 136 470 280 470 54 470 54 471 280 471 281 471 54 472 281 472 52 472 52 473 281 473 282 473 52 474 282 474 191 474 191 475 282 475 283 475 284 476 139 476 96 476 188 477 285 477 98 477 98 478 285 478 286 478 98 479 286 479 96 479 96 480 286 480 287 480 96 481 287 481 284 481 139 482 284 482 136 482 136 483 284 483 280 483 283 484 282 484 285 484 285 485 282 485 286 485 284 486 287 486 280 486 280 487 287 487 281 487 281 488 287 488 282 488 282 489 287 489 286 489 283 490 285 490 191 490 191 491 285 491 188 491 131 492 288 492 50 492 50 493 288 493 289 493 50 494 289 494 48 494 48 495 289 495 290 495 48 496 290 496 193 496 193 497 290 497 291 497 292 498 128 498 47 498 194 499 293 499 45 499 45 500 293 500 294 500 45 501 294 501 47 501 47 502 294 502 295 502 47 503 295 503 292 503 128 504 292 504 131 504 131 505 292 505 288 505 291 506 290 506 293 506 293 507 290 507 294 507 292 508 295 508 288 508 288 509 295 509 289 509 289 510 295 510 290 510 290 511 295 511 294 511 291 512 293 512 193 512 193 513 293 513 194 513 127 514 296 514 46 514 46 515 296 515 297 515 46 516 297 516 44 516 44 517 297 517 298 517 44 518 298 518 197 518 197 519 298 519 299 519 300 520 129 520 79 520 196 521 301 521 78 521 78 522 301 522 302 522 78 523 302 523 79 523 79 524 302 524 303 524 79 525 303 525 300 525 129 526 300 526 127 526 127 527 300 527 296 527 299 528 298 528 301 528 301 529 298 529 302 529 300 530 303 530 296 530 296 531 303 531 297 531 297 532 303 532 298 532 298 533 303 533 302 533 299 534 301 534 197 534 197 535 301 535 196 535 304 536 118 536 91 536 177 537 305 537 89 537 89 538 305 538 306 538 89 539 306 539 91 539 91 540 306 540 307 540 91 541 307 541 304 541 119 542 308 542 93 542 93 543 308 543 309 543 93 544 309 544 95 544 95 545 309 545 310 545 95 546 310 546 178 546 178 547 310 547 311 547 304 548 308 548 118 548 118 549 308 549 119 549 304 550 307 550 308 550 308 551 307 551 309 551 311 552 310 552 305 552 305 553 310 553 306 553 306 554 310 554 307 554 307 555 310 555 309 555 178 556 311 556 177 556 177 557 311 557 305 557 312 558 116 558 39 558 182 559 313 559 38 559 38 560 313 560 314 560 38 561 314 561 39 561 39 562 314 562 315 562 39 563 315 563 312 563 117 564 316 564 90 564 90 565 316 565 317 565 90 566 317 566 88 566 88 567 317 567 318 567 88 568 318 568 183 568 183 569 318 569 319 569 312 570 316 570 116 570 116 571 316 571 117 571 312 572 315 572 316 572 316 573 315 573 317 573 319 574 318 574 313 574 313 575 318 575 314 575 314 576 318 576 315 576 315 577 318 577 317 577 183 578 319 578 182 578 182 579 319 579 313 579 125 580 320 580 83 580 83 581 320 581 321 581 83 582 321 582 82 582 82 583 321 583 322 583 82 584 322 584 179 584 179 585 322 585 323 585 324 586 126 586 77 586 180 587 325 587 75 587 75 588 325 588 326 588 75 589 326 589 77 589 77 590 326 590 327 590 77 591 327 591 324 591 126 592 324 592 125 592 125 593 324 593 320 593 324 594 327 594 320 594 320 595 327 595 321 595 323 596 322 596 325 596 325 597 322 597 326 597 327 598 326 598 321 598 321 599 326 599 322 599 323 600 325 600 179 600 179 601 325 601 180 601 124 602 328 602 76 602 76 603 328 603 329 603 76 604 329 604 74 604 74 605 329 605 330 605 74 606 330 606 181 606 181 607 330 607 331 607 332 608 121 608 73 608 176 609 333 609 71 609 71 610 333 610 334 610 71 611 334 611 73 611 73 612 334 612 335 612 73 613 335 613 332 613 121 614 332 614 124 614 124 615 332 615 328 615 332 616 335 616 328 616 328 617 335 617 329 617 331 618 330 618 333 618 333 619 330 619 334 619 335 620 334 620 329 620 329 621 334 621 330 621 331 622 333 622 181 622 181 623 333 623 176 623 120 624 336 624 72 624 72 625 336 625 337 625 72 626 337 626 70 626 70 627 337 627 338 627 70 628 338 628 174 628 174 629 338 629 339 629 340 630 122 630 92 630 175 631 341 631 94 631 94 632 341 632 342 632 94 633 342 633 92 633 92 634 342 634 343 634 92 635 343 635 340 635 122 636 340 636 120 636 120 637 340 637 336 637 340 638 343 638 336 638 336 639 343 639 337 639 339 640 338 640 341 640 341 641 338 641 342 641 343 642 342 642 337 642 337 643 342 643 338 643 339 644 341 644 174 644 174 645 341 645 175 645 114 646 344 646 43 646 43 647 344 647 345 647 43 648 345 648 42 648 42 649 345 649 346 649 42 650 346 650 167 650 167 651 346 651 347 651 348 652 115 652 37 652 163 653 349 653 35 653 35 654 349 654 350 654 35 655 350 655 37 655 37 656 350 656 351 656 37 657 351 657 348 657 348 658 344 658 115 658 115 659 344 659 114 659 348 660 351 660 344 660 344 661 351 661 345 661 347 662 346 662 349 662 349 663 346 663 350 663 351 664 350 664 345 664 345 665 350 665 346 665 167 666 347 666 163 666 163 667 347 667 349 667 112 668 352 668 36 668 36 669 352 669 353 669 36 670 353 670 34 670 34 671 353 671 354 671 34 672 354 672 164 672 164 673 354 673 355 673 356 674 111 674 15 674 168 675 357 675 13 675 13 676 357 676 358 676 13 677 358 677 15 677 15 678 358 678 359 678 15 679 359 679 356 679 356 680 352 680 111 680 111 681 352 681 112 681 356 682 359 682 352 682 352 683 359 683 353 683 355 684 354 684 357 684 357 685 354 685 358 685 359 686 358 686 353 686 353 687 358 687 354 687 164 688 355 688 168 688 168 689 355 689 357 689 108 690 360 690 31 690 31 691 360 691 361 691 31 692 361 692 33 692 33 693 361 693 362 693 33 694 362 694 170 694 170 695 362 695 363 695 364 696 107 696 3 696 171 697 365 697 1 697 1 698 365 698 366 698 1 699 366 699 3 699 3 700 366 700 367 700 3 701 367 701 364 701 364 702 360 702 107 702 107 703 360 703 108 703 364 704 367 704 360 704 360 705 367 705 361 705 363 706 362 706 365 706 365 707 362 707 366 707 367 708 366 708 361 708 361 709 366 709 362 709 170 710 363 710 171 710 171 711 363 711 365 711 110 712 368 712 14 712 14 713 368 713 369 713 14 714 369 714 12 714 12 715 369 715 370 715 12 716 370 716 173 716 173 717 370 717 371 717 372 718 113 718 30 718 169 719 373 719 32 719 32 720 373 720 374 720 32 721 374 721 30 721 30 722 374 722 375 722 30 723 375 723 372 723 372 724 368 724 113 724 113 725 368 725 110 725 372 726 375 726 368 726 368 727 375 727 369 727 371 728 370 728 373 728 373 729 370 729 374 729 375 730 374 730 369 730 369 731 374 731 370 731 173 732 371 732 169 732 169 733 371 733 373 733 102 734 376 734 9 734 9 735 376 735 377 735 9 736 377 736 11 736 11 737 377 737 378 737 11 738 378 738 166 738 166 739 378 739 379 739 380 740 101 740 21 740 165 741 381 741 20 741 20 742 381 742 382 742 20 743 382 743 21 743 21 744 382 744 383 744 21 745 383 745 380 745 380 746 376 746 101 746 101 747 376 747 102 747 380 748 383 748 376 748 376 749 383 749 377 749 379 750 378 750 381 750 381 751 378 751 382 751 383 752 382 752 377 752 377 753 382 753 378 753 166 754 379 754 165 754 165 755 379 755 381 755 104 756 384 756 5 756 5 757 384 757 385 757 5 758 385 758 7 758 7 759 385 759 386 759 7 760 386 760 160 760 160 761 386 761 387 761 388 762 103 762 8 762 161 763 389 763 10 763 10 764 389 764 390 764 10 765 390 765 8 765 8 766 390 766 391 766 8 767 391 767 388 767 388 768 384 768 103 768 103 769 384 769 104 769 388 770 391 770 384 770 384 771 391 771 385 771 387 772 386 772 389 772 389 773 386 773 390 773 391 774 390 774 385 774 385 775 390 775 386 775 160 776 387 776 161 776 161 777 387 777 389 777 106 778 392 778 2 778 2 779 392 779 393 779 2 780 393 780 0 780 0 781 393 781 394 781 0 782 394 782 172 782 172 783 394 783 395 783 396 784 109 784 4 784 162 785 397 785 6 785 6 786 397 786 398 786 6 787 398 787 4 787 4 788 398 788 399 788 4 789 399 789 396 789 396 790 392 790 109 790 109 791 392 791 106 791 396 792 399 792 392 792 392 793 399 793 393 793 395 794 394 794 397 794 397 795 394 795 398 795 399 796 398 796 393 796 393 797 398 797 394 797 172 798 395 798 162 798 162 799 395 799 397 799</p>
        </triangles>
      </mesh>
    </geometry>
  </library_geometries>
  <library_visual_scenes>
    <visual_scene id="Scene" name="Scene">
      <node id="Bounding_box_area" name="Bounding box area" type="NODE">
        <matrix sid="transform">0.001 0 0 -1.56659e-5 0 -4.37114e-11 -0.001 0 0 0.001 -4.37114e-11 0.045 0 0 0 1</matrix>
        <instance_geometry url="#Bounding_box_area-mesh" name="Bounding box area">
          <bind_material>
            <technique_common>
              <instance_material symbol="Material_001-material" target="#Material_001-material"/>
            </technique_common>
          </bind_material>
        </instance_geometry>
      </node>
      <node id="Camera" name="Camera" type="NODE">
        <matrix sid="transform">0.6859207 -0.3240135 0.6515582 7.358891 0.7276763 0.3054208 -0.6141704 -6.925791 0 0.8953956 0.4452714 4.958309 0 0 0 1</matrix>
        <instance_camera url="#Camera-camera"/>
      </node>
      <node id="Light" name="Light" type="NODE">
        <matrix sid="transform">-0.2908646 -0.7711008 0.5663932 4.076245 0.9551712 -0.1998834 0.2183912 1.005454 -0.05518906 0.6045247 0.7946723 5.903862 0 0 0 1</matrix>
        <instance_light url="#Light-light"/>
      </node>
    </visual_scene>
  </library_visual_scenes>
  <scene>
    <instance_visual_scene url="#Scene"/>
  </scene>
</COLLADA>