<?xml version="1.0" encoding="utf-8"?>
<COLLADA xmlns="http://www.collada.org/2005/11/COLLADASchema" version="1.4.1" xmlns:xsi="http://www.w3.org/2001/XMLSchema-instance">
  <asset>
    <contributor>
      <author>Blender User</author>
      <authoring_tool>Blender 4.2.18 LTS commit date:2026-02-16, commit time:13:37, hash:d71e3422e438</authoring_tool>
    </contributor>
    <created>2026-02-25T13:27:12</created>
    <modified>2026-02-25T13:27:12</modified>
    <unit name="meter" meter="1"/>
    <up_axis>Z_UP</up_axis>
  </asset>
  <library_cameras>
    <camera id="Camera-camera" name="Camera">
      <optics>
        <technique_common>
          <perspective>
            <xfov sid="xfov">39.59775</xfov>
            <aspect_ratio>1.777778</aspect_ratio>
            <znear sid="znear">0.1</znear>
            <zfar sid="zfar">100</zfar>
          </perspective>
        </technique_common>
      </optics>
      <extra>
        <technique profile="blender">
          <shiftx sid="shiftx" type="float">0</shiftx>
          <shifty sid="shifty" type="float">0</shifty>
          <dof_distance sid="dof_distance" type="float">10</dof_distance>
        </technique>
      </extra>
    </camera>
  </library_cameras>
  <library_lights>
    <light id="Light-light" name="Light">
      <technique_common>
        <point>
          <color sid="color">1000 1000 1000</color>
          <constant_attenuation>1</constant_attenuation>
          <linear_attenuation>0</linear_attenuation>
          <quadratic_attenuation>0</quadratic_attenuation>
        </point>
      </technique_common>
      <extra>
        <technique profile="blender">
          <type sid="type" type="int">0</type>
          <flag sid="flag" type="int">0</flag>
          <mode sid="mode" type="int">2097153</mode>
          <red sid="red" type="float">1</red>
          <green sid="green" type="float">1</green>
          <blue sid="blue" type="float">1</blue>
          <shadow_r sid="blender_shadow_r" type="float">0</shadow_r>
          <shadow_g sid="blender_shadow_g" type="float">0</shadow_g>
          <shadow_b sid="blender_shadow_b" type="float">0</shadow_b>
          <energy sid="blender_energy" type="float">1000</energy>
          <spotsize sid="spotsize" type="float">75</spotsize>
          <spotblend sid="spotblend" type="float">0.15</spotblend>
          <clipsta sid="clipsta" type="float">0.04999995</clipsta>
          <clipend sid="clipend" type="float">30.002</clipend>
          <bias sid="bias" type="float">1</bias>
          <radius sid="radius" type="float">0.1</radius>
          <area_shape sid="area_shape" type="int">1</area_shape>
          <area_size sid="area_size" type="float">0.1</area_size>
          <area_sizey sid="area_sizey" type="float">0.1</area_sizey>
          <area_sizez sid="area_sizez" type="float">1</area_sizez>
        </technique>
      </extra>
    </light>
  </library_lights>
  <library_effects>
    <effect id="Material_001-effect">
      <profile_COMMON>
        <technique sid="common">
          <lambert>
            <emission>
              <color sid="emission">0 0 0 1</color>
            </emission>
            <diffuse>
              <color sid="diffuse">0.8000858 0.01408277 0.01408277 1</color>
            </diffuse>
            <index_of_refraction>
              <float sid="ior">1.2</float>
            </index_of_refraction>
          </lambert>
        </technique>
      </profile_COMMON>
    </effect>
  </library_effects>
  <library_images/>
  <library_materials>
    <material id="Material_001-material" name="Material.001">
      <instance_effect url="#Material_001-effect"/>
    </material>
  </library_materials>
  <library_geometries>
    <geometry id="blocks-mesh" name="blocks">
      <mesh>
        <source id="blocks-mesh-positions">
          <float_array id="blocks-mesh-positions-array" count="1482">-17.5 16.5 -17.5 -17.5 -17.5 -17.5 -17.5 16.5 16.5 -17.5 -17.5 16.5 16.5 16.5 17.5 -16.5 16.5 17.5 16.5 -16.5 17.5 -16.5 -16.5 17.5 17.5 16.5 -16.5 17.5 16.5 16.5 17.5 -16.5 -16.5 17.5 -16.5 16.5 16.5 16.5 -17.5 16.5 -17.5 -17.5 -16.5 17.5 16.5 16.5 17.5 16.5 -16.5 17.5 -16.5 16.5 17.5 -16.5 16.5 -17.5 16.5 16.5 17.48769 -16.65643 -16.65644 17.48769 -16.65643 16.5 17.45106 -16.80902 -16.80902 17.45106 -16.80902 16.5 17.39101 -16.95399 -16.95399 17.39101 -16.95399 16.5 17.30902 -17.08779 -17.08779 17.30902 -17.08779 16.5 17.20711 -17.20711 -17.20711 17.20711 -17.20711 16.5 17.08778 -17.30902 -17.30902 17.08778 -17.30902 -17.35264 17.0225 -17.35264 16.5 16.95399 -17.39101 -17.39101 16.95399 -17.39101 -17.42388 16.88268 -17.42388 16.5 16.80902 -17.45106 -17.45106 16.80902 -17.45106 -17.47237 16.73345 -17.47237 16.5 16.65643 -17.48769 -17.48769 16.65643 -17.48769 -17.49692 16.57846 -17.49692 17.48769 16.65643 -16.5 17.48769 16.65643 16.5 17.45106 16.80902 -16.5 17.45106 16.80902 16.5 17.39101 16.95399 -16.5 17.39101 16.95399 16.5 17.30902 17.08778 -16.5 17.30902 17.08778 16.5 17.20711 17.20711 -16.5 17.20711 17.20711 16.5 17.08778 17.30902 -16.5 17.08778 17.30902 16.5 16.95399 17.39101 -16.5 16.95399 17.39101 16.5 16.80902 17.45106 -16.5 16.80902 17.45106 16.5 16.65643 17.48769 -16.5 16.65643 17.48769 16.5 16.65451 16.65643 -17.47553 16.75 17.45106 -16.68164 16.62656 17.48769 -16.59195 16.63939 17.48769 -16.57102 16.65451 17.48769 -16.52447 16.61062 17.48769 -16.61062 16.71851 17.45106 -16.71851 16.82102 17.39101 -16.82102 16.59195 17.48769 -16.62656 16.77533 17.45106 -16.64029 16.64878 17.48769 -16.54834 16.79389 17.45106 -16.59549 16.80521 17.45106 -16.54834 16.68164 17.45106 -16.75 16.76685 17.39101 -16.86729 16.84549 17.30902 -16.97553 16.57102 17.48769 -16.63938 16.86729 17.39101 -16.76685 16.90451 17.39101 -16.70611 16.93177 17.39101 -16.64029 16.9484 17.39101 -16.57102 16.64029 17.45106 -16.77533 16.70611 17.39101 -16.90451 16.76685 17.30902 -17.02372 16.82102 17.20711 -17.13004 16.54834 17.48769 -16.64878 16.91563 17.30902 -16.91563 16.97553 17.30902 -16.84549 17.02372 17.30902 -16.76685 17.05901 17.30902 -16.68164 17.08055 17.30902 -16.59195 16.59549 17.45106 -16.79389 16.64029 17.39101 -16.93177 16.68164 17.30902 -17.05902 16.71851 17.20711 -17.1725 16.75 17.08778 -17.26942 16.52448 17.48769 -16.65451 16.91563 17.20711 -17.07206 17 17.20711 -17 17.07206 17.20711 -16.91563 17.13004 17.20711 -16.82102 17.1725 17.20711 -16.71851 17.1984 17.20711 -16.61062 16.54834 17.45106 -16.80521 16.57102 17.39101 -16.9484 16.59195 17.30902 -17.08055 16.61062 17.20711 -17.1984 16.62656 17.08778 -17.29906 16.63939 16.95399 -17.38004 16.86729 17.08778 -17.22084 16.97553 17.08778 -17.15451 17.07206 17.08778 -17.07206 17.15451 17.08778 -16.97553 17.22084 17.08778 -16.86729 17.26942 17.08778 -16.75 17.29906 17.08778 -16.62656 16.77533 16.95399 -17.3474 16.90451 16.95399 -17.29389 17.02372 16.95399 -17.22084 17.13004 16.95399 -17.13004 17.22084 16.95399 -17.02372 17.29389 16.95399 -16.90451 17.3474 16.95399 -16.77533 17.38004 16.95399 -16.63938 16.64878 16.80902 -17.43935 16.79389 16.80902 -17.40451 16.93177 16.80902 -17.3474 17.05901 16.80902 -17.26942 17.1725 16.80902 -17.1725 17.26942 16.80902 -17.05902 17.3474 16.80902 -16.93177 17.40451 16.80902 -16.79389 17.43935 16.80902 -16.64878 16.80521 16.65643 -17.43935 16.9484 16.65643 -17.38004 17.08055 16.65643 -17.29906 17.1984 16.65643 -17.1984 17.29906 16.65643 -17.08055 17.38004 16.65643 -16.9484 17.43935 16.65643 -16.80521 17.47553 16.65643 -16.65451 16.65643 16.5 -17.48769 16.80902 16.5 -17.45106 16.95399 16.5 -17.39101 17.08778 16.5 -17.30902 17.20711 16.5 -17.20711 17.30902 16.5 -17.08779 17.39101 16.5 -16.95399 17.45106 16.5 -16.80902 17.48769 16.5 -16.65643 -17.48769 16.65643 16.5 -17.45106 16.80902 16.5 -17.39101 16.95399 16.5 -17.30902 17.08778 16.5 -17.20711 17.20711 16.5 -17.08779 17.30902 16.5 -16.95399 17.39101 16.5 -16.80902 17.45106 16.5 -16.65644 17.48769 16.5 16.5 16.65643 17.48769 -16.5 16.65643 17.48769 16.5 16.80902 17.45106 -16.5 16.80902 17.45106 16.5 16.95399 17.39101 -16.5 16.95399 17.39101 16.5 17.08778 17.30902 -16.5 17.08778 17.30902 16.5 17.20711 17.20711 -16.5 17.20711 17.20711 16.5 17.30902 17.08778 -16.5 17.30902 17.08778 16.5 17.39101 16.95399 -16.5 17.39101 16.95399 16.5 17.45106 16.80902 -16.5 17.45106 16.80902 16.5 17.48769 16.65643 -16.5 17.48769 16.65643 17.47553 16.65643 16.65451 16.68164 17.45106 16.75 16.59195 17.48769 16.62656 16.57102 17.48769 16.63939 16.52448 17.48769 16.65451 16.61062 17.48769 16.61062 16.71851 17.45106 16.71851 16.82102 17.39101 16.82102 16.62656 17.48769 16.59195 16.64029 17.45106 16.77534 16.54834 17.48769 16.64878 16.59549 17.45106 16.79389 16.54834 17.45106 16.80521 16.75 17.45106 16.68164 16.86729 17.39101 16.76685 16.97553 17.30902 16.84549 16.63939 17.48769 16.57102 16.76685 17.39101 16.86729 16.70611 17.39101 16.90451 16.64029 17.39101 16.93177 16.57102 17.39101 16.9484 16.77533 17.45106 16.64029 16.90451 17.39101 16.70611 17.02372 17.30902 16.76685 17.13004 17.20711 16.82102 16.64878 17.48769 16.54834 16.91563 17.30902 16.91563 16.84549 17.30902 16.97553 16.76685 17.30902 17.02372 16.68164 17.30902 17.05902 16.59195 17.30902 17.08055 16.79389 17.45106 16.59549 16.93177 17.39101 16.64029 17.05901 17.30902 16.68164 17.1725 17.20711 16.71851 17.26942 17.08778 16.75 16.65451 17.48769 16.52447 17.07206 17.20711 16.91563 17 17.20711 17 16.91563 17.20711 17.07206 16.82102 17.20711 17.13004 16.71851 17.20711 17.1725 16.61062 17.20711 17.1984 16.80521 17.45106 16.54834 16.9484 17.39101 16.57102 17.08055 17.30902 16.59195 17.1984 17.20711 16.61062 17.29906 17.08778 16.62656 17.38004 16.95399 16.63939 17.22084 17.08778 16.86729 17.15451 17.08778 16.97553 17.07206 17.08778 17.07206 16.97553 17.08778 17.15451 16.86729 17.08778 17.22084 16.75 17.08778 17.26942 16.62656 17.08778 17.29906 17.3474 16.95399 16.77534 17.29389 16.95399 16.90451 17.22084 16.95399 17.02372 17.13004 16.95399 17.13004 17.02372 16.95399 17.22084 16.90451 16.95399 17.29389 16.77533 16.95399 17.3474 16.63939 16.95399 17.38004 17.43935 16.80902 16.64878 17.40451 16.80902 16.79389 17.3474 16.80902 16.93177 17.26942 16.80902 17.05902 17.1725 16.80902 17.1725 17.05901 16.80902 17.26942 16.93177 16.80902 17.3474 16.79389 16.80902 17.40451 16.64878 16.80902 17.43935 17.43935 16.65643 16.80521 17.38004 16.65643 16.9484 17.29906 16.65643 17.08055 17.1984 16.65643 17.1984 17.08055 16.65643 17.29906 16.9484 16.65643 17.38004 16.80521 16.65643 17.43935 16.65451 16.65643 17.47553 17.48769 16.5 16.65643 17.45106 16.5 16.80902 17.39101 16.5 16.95399 17.30902 16.5 17.08778 17.20711 16.5 17.20711 17.08778 16.5 17.30902 16.95399 16.5 17.39101 16.80902 16.5 17.45106 16.65643 16.5 17.48769 16.57846 -17.49692 -17.49692 16.65643 -17.48769 -17.48769 16.73345 -17.47237 -17.47237 16.80902 -17.45106 -17.45106 16.88268 -17.42388 -17.42388 16.95399 -17.39101 -17.39101 17.0225 -17.35264 -17.35264 17.08778 -17.30902 -17.30902 17.20711 -17.20711 -17.20711 17.30902 -17.08779 -17.08779 17.39101 -16.95399 -16.95399 17.45106 -16.80902 -16.80902 17.48769 -16.65644 -16.65643 -16.65451 16.65643 17.47553 -16.75 17.45106 16.68164 -16.62656 17.48769 16.59195 -16.63938 17.48769 16.57102 -16.65451 17.48769 16.52447 -16.61062 17.48769 16.61062 -16.71851 17.45106 16.71851 -16.82102 17.39101 16.82102 -16.59195 17.48769 16.62656 -16.77534 17.45106 16.64029 -16.64878 17.48769 16.54834 -16.79389 17.45106 16.59549 -16.80521 17.45106 16.54834 -16.68164 17.45106 16.75 -16.76685 17.39101 16.86729 -16.84549 17.30902 16.97553 -16.57102 17.48769 16.63939 -16.86729 17.39101 16.76685 -16.90451 17.39101 16.70611 -16.93177 17.39101 16.64029 -16.9484 17.39101 16.57102 -16.64029 17.45106 16.77534 -16.70611 17.39101 16.90451 -16.76685 17.30902 17.02372 -16.82102 17.20711 17.13004 -16.54834 17.48769 16.64878 -16.91563 17.30902 16.91563 -16.97553 17.30902 16.84549 -17.02372 17.30902 16.76685 -17.05902 17.30902 16.68164 -17.08055 17.30902 16.59195 -16.59549 17.45106 16.79389 -16.64029 17.39101 16.93177 -16.68164 17.30902 17.05902 -16.71851 17.20711 17.1725 -16.75 17.08778 17.26942 -16.52447 17.48769 16.65451 -16.91563 17.20711 17.07206 -17 17.20711 17 -17.07206 17.20711 16.91563 -17.13004 17.20711 16.82102 -17.1725 17.20711 16.71851 -17.1984 17.20711 16.61062 -16.54834 17.45106 16.80521 -16.57102 17.39101 16.9484 -16.59195 17.30902 17.08055 -16.61062 17.20711 17.1984 -16.62656 17.08778 17.29906 -16.63938 16.95399 17.38004 -16.86729 17.08778 17.22084 -16.97553 17.08778 17.15451 -17.07206 17.08778 17.07206 -17.15451 17.08778 16.97553 -17.22084 17.08778 16.86729 -17.26942 17.08778 16.75 -17.29906 17.08778 16.62656 -16.77534 16.95399 17.3474 -16.90451 16.95399 17.29389 -17.02372 16.95399 17.22084 -17.13004 16.95399 17.13004 -17.22084 16.95399 17.02372 -17.29389 16.95399 16.90451 -17.3474 16.95399 16.77534 -17.38004 16.95399 16.63939 -16.64878 16.80902 17.43935 -16.79389 16.80902 17.40451 -16.93177 16.80902 17.3474 -17.05902 16.80902 17.26942 -17.1725 16.80902 17.1725 -17.26942 16.80902 17.05902 -17.3474 16.80902 16.93177 -17.40451 16.80902 16.79389 -17.43935 16.80902 16.64878 -16.80521 16.65643 17.43935 -16.9484 16.65643 17.38004 -17.08055 16.65643 17.29906 -17.1984 16.65643 17.1984 -17.29906 16.65643 17.08055 -17.38004 16.65643 16.9484 -17.43935 16.65643 16.80521 -17.47553 16.65643 16.65451 -16.65644 16.5 17.48769 -16.80902 16.5 17.45106 -16.95399 16.5 17.39101 -17.08779 16.5 17.30902 -17.20711 16.5 17.20711 -17.30902 16.5 17.08778 -17.39101 16.5 16.95399 -17.45106 16.5 16.80902 -17.48769 16.5 16.65643 16.65643 -16.5 17.48769 16.80902 -16.5 17.45106 16.95399 -16.5 17.39101 17.08778 -16.5 17.30902 17.20711 -16.5 17.20711 17.30902 -16.5 17.08778 17.39101 -16.5 16.95399 17.45106 -16.5 16.80902 17.48769 -16.5 16.65643 17.48769 -16.65644 16.5 17.45106 -16.80902 16.5 17.39101 -16.95399 16.5 17.30902 -17.08779 16.5 17.20711 -17.20711 16.5 17.08778 -17.30902 16.5 16.95399 -17.39101 16.5 16.80902 -17.45106 16.5 16.65643 -17.48769 16.5 16.5 -17.5 16.5 16.5 -17.5 -17.5 -16.65644 -16.65644 17.48769 -16.80902 -16.80902 17.45106 -16.95399 -16.95399 17.39101 -17.08779 -17.08779 17.30902 -17.20711 -17.20711 17.20711 -17.30902 -17.30902 17.08778 -17.35264 -17.35264 17.0225 -17.39101 -17.39101 16.95399 -17.42388 -17.42388 16.88268 -17.45106 -17.45106 16.80902 -17.47237 -17.47237 16.73344 -17.48769 -17.48769 16.65643 -17.49692 -17.49692 16.57846 16.5 -17.5 16.5 16.65643 -17.47553 16.65451 17.45106 -16.68164 16.75 17.48769 -16.59195 16.62656 17.48769 -16.57102 16.63939 17.48769 -16.52447 16.65451 17.48769 -16.61062 16.61062 17.45106 -16.71851 16.71851 17.39101 -16.82102 16.82102 17.48769 -16.62656 16.59195 17.45106 -16.64029 16.77534 17.48769 -16.54834 16.64878 17.45106 -16.59549 16.79389 17.45106 -16.54834 16.80521 17.45106 -16.75 16.68164 17.39101 -16.86729 16.76685 17.30902 -16.97553 16.84549 17.48769 -16.63938 16.57102 17.39101 -16.76685 16.86729 17.39101 -16.70611 16.90451 17.39101 -16.64029 16.93177 17.39101 -16.57102 16.9484 17.45106 -16.77534 16.64029 17.39101 -16.90451 16.70611 17.30902 -17.02372 16.76685 17.20711 -17.13004 16.82102 17.48769 -16.64878 16.54834 17.30902 -16.91563 16.91563 17.30902 -16.84549 16.97553 17.30902 -16.76685 17.02372 17.30902 -16.68164 17.05902 17.30902 -16.59195 17.08055 17.45106 -16.79389 16.59549 17.39101 -16.93177 16.64029 17.30902 -17.05902 16.68164 17.20711 -17.1725 16.71851 17.08778 -17.26942 16.75 17.48769 -16.65451 16.52447 17.20711 -17.07206 16.91563 17.20711 -17 17 17.20711 -16.91563 17.07206 17.20711 -16.82102 17.13004 17.20711 -16.71851 17.1725 17.20711 -16.61062 17.1984 17.45106 -16.80521 16.54834 17.39101 -16.9484 16.57102 17.30902 -17.08055 16.59195 17.20711 -17.1984 16.61062 17.08778 -17.29906 16.62656 16.95399 -17.38004 16.63939 17.08778 -17.22084 16.86729 17.08778 -17.15451 16.97553 17.08778 -17.07206 17.07206 17.08778 -16.97553 17.15451 17.08778 -16.86729 17.22084 17.08778 -16.75 17.26942 17.08778 -16.62656 17.29906 16.95399 -17.3474 16.77534 16.95399 -17.29389 16.90451 16.95399 -17.22084 17.02372 16.95399 -17.13004 17.13004 16.95399 -17.02372 17.22084 16.95399 -16.90451 17.29389 16.95399 -16.77534 17.3474 16.95399 -16.63938 17.38004 16.80902 -17.43935 16.64878 16.80902 -17.40451 16.79389 16.80902 -17.3474 16.93177 16.80902 -17.26942 17.05902 16.80902 -17.1725 17.1725 16.80902 -17.05902 17.26942 16.80902 -16.93177 17.3474 16.80902 -16.79389 17.40451 16.80902 -16.64878 17.43935 16.65643 -17.43935 16.80521 16.65643 -17.38004 16.9484 16.65643 -17.29906 17.08055 16.65643 -17.1984 17.1984 16.65643 -17.08055 17.29906 16.65643 -16.9484 17.38004 16.65643 -16.80521 17.43935 16.65643 -16.65451 17.47553 16.5 -17.48769 16.65643 16.5 -17.45106 16.80902 16.5 -17.39101 16.95399 16.5 -17.30902 17.08778 16.5 -17.20711 17.20711 16.5 -17.08779 17.30902 16.5 -16.95399 17.39101 16.5 -16.80902 17.45106 16.5 -16.65644 17.48769 -17.5 -17.5 16.5</float_array>
          <technique_common>
            <accessor source="#blocks-mesh-positions-array" count="494" stride="3">
              <param name="X" type="float"/>
              <param name="Y" type="float"/>
              <param name="Z" type="float"/>
            </accessor>
          </technique_common>
        </source>
        <source id="blocks-mesh-normals">
          <float_array id="blocks-mesh-normals-array" count="2928">-1 0 0 -1 0 0 0 0 1 0 0 1 1 0 0 1 0 0 0 0 -1 0 0 -1 0 1 0 0 1 0 0 -1 0 0 -1 0 0 0.9969162 -0.07847452 0 0.9969161 -0.07847452 0 0.9723756 -0.2334216 0 0.9723756 -0.2334217 0 0.9238758 -0.3826925 0 0.9238758 -0.3826925 0 0.8526409 -0.5224974 0 0.8526409 -0.5224974 0 0.7604034 -0.649451 0 0.7604034 -0.649451 0 0.649439 -0.7604137 0 0.649439 -0.7604137 0 0.55558 -0.831463 9.10751e-5 0.5225028 -0.8526376 0 0.4886204 -0.8724964 0 0.4186961 -0.9081264 9.09281e-5 0.3826985 -0.9238733 0 0.3461083 -0.9381945 0 0.2714406 -0.9624552 9.07601e-5 0.2334359 -0.9723722 0 0.1950743 -0.9807885 0 0.1175262 -0.9930697 9.06397e-5 0.07846152 -0.9969171 0 0.03927826 -0.9992283 0.9969162 0.07847356 0 0.9969162 0.07847356 0 0.9723749 0.2334244 0 0.9723749 0.2334244 0 0.9238775 0.3826881 0 0.9238775 0.3826881 0 0.8526375 0.5225027 0 0.8526375 0.5225027 0 0.7604137 0.649439 0 0.7604137 0.649439 0 0.649439 0.7604137 0 0.649439 0.7604137 0 0.5225027 0.8526375 0 0.5225027 0.8526375 0 0.3826881 0.9238775 0 0.3826881 0.9238775 0 0.2334244 0.9723749 0 0.2334244 0.9723749 0 0.07847356 0.9969162 0 0.07847356 0.9969162 0 0.07821488 0.07822114 -0.9938631 0.1995933 0.9722114 -0.1223425 0.07847207 0.9968972 -0.006177425 0.06711059 0.9968972 -0.04113602 0.05986362 0.9968972 -0.05111068 0.1780477 0.9722092 -0.1520146 0.1780211 0.9722108 -0.1520344 0.2917715 0.9234602 -0.2491799 0.05111128 0.9968972 -0.05986332 0.2162871 0.9722102 -0.089594 0.2276422 0.9722102 -0.05464577 0.2276425 0.9722102 -0.05464524 0.2333874 0.9722102 -0.01837265 0.233385 0.9722107 -0.01838052 0.15201 0.9722114 -0.1780393 0.1520376 0.9722097 -0.1780249 0.2491817 0.9234591 -0.2917736 0.249174 0.9234602 -0.2917765 0.3400735 0.8519229 -0.3982176 0.04113453 0.9968971 -0.06711202 0.3271446 0.9234613 -0.2004885 0.3544796 0.9234623 -0.1468383 0.3544906 0.9234601 -0.146826 0.3730976 0.9234592 -0.08956152 0.3730995 0.9234588 -0.08955866 0.3825127 0.9234589 -0.03012526 0.3825145 0.9234584 -0.03012114 0.1223415 0.9722095 -0.1996031 0.1223207 0.9722106 -0.1996102 0.200479 0.9234601 -0.3271538 0.2004867 0.9234591 -0.3271521 0.2736237 0.8519221 -0.4464961 0.273624 0.851922 -0.4464961 0.3399496 0.7594169 -0.5547254 0.03012377 0.9968972 -0.07272261 0.3982051 0.8519245 -0.3400841 0.4464897 0.851924 -0.2736282 0.4465011 0.8519206 -0.2736204 0.4838126 0.851921 -0.2003898 0.4838309 0.8519147 -0.2003724 0.509218 0.8519132 -0.1222325 0.5091964 0.8519222 -0.1222608 0.5220499 0.8519237 -0.0411089 0.5220615 0.8519176 -0.04108738 0.08959162 0.9722108 -0.2162857 0.08960551 0.9722101 -0.2162833 0.1468617 0.9234567 -0.3544845 0.1468343 0.9234605 -0.354486 0.2004038 0.8519178 -0.4838125 0.2003863 0.8519221 -0.483812 0.2489569 0.7594224 -0.6010808 0.2489726 0.7594165 -0.6010818 0.2913752 0.6482709 -0.7034523 0.01837629 0.9968972 -0.07653951 0.42256 0.7594044 -0.4947202 0.4947451 0.7594029 -0.4225334 0.4947253 0.7594111 -0.422542 0.5547349 0.759411 -0.3399472 0.5547169 0.7594192 -0.3399586 0.6010962 0.7594169 -0.2489364 0.6010672 0.7594316 -0.2489619 0.6326066 0.7594324 -0.1518923 0.6326206 0.7594242 -0.1518754 0.6485908 0.7594237 -0.05104553 0.6485924 0.7594224 -0.05104273 0.05465513 0.9722091 -0.227645 0.05463224 0.9722104 -0.2276453 0.08953893 0.9234619 -0.3730965 0.08957141 0.9234574 -0.3730999 0.1222469 0.8519186 -0.5092055 0.1222497 0.8519181 -0.5092061 0.1518799 0.7594202 -0.6326243 0.1518762 0.7594217 -0.6326234 0.1777419 0.648281 -0.7403644 0.1777593 0.6482718 -0.7403684 0.1992244 0.521335 -0.8297708 0.006170451 0.9968972 -0.07847303 0.3978298 0.6482753 -0.6492077 0.4945145 0.6482731 -0.5789624 0.4944958 0.6482831 -0.5789671 0.5789699 0.6482814 -0.4944948 0.5789647 0.6482843 -0.494497 0.6491814 0.6482886 -0.3978511 0.6492298 0.6482589 -0.3978206 0.7034645 0.648258 -0.2913749 0.7034466 0.6482704 -0.2913906 0.7403726 0.6482712 -0.1777439 0.7403672 0.6482755 -0.1777504 0.7590577 0.6482769 -0.05973613 0.7590556 0.648279 -0.05973964 0.01835119 0.9722118 -0.2333824 0.01838999 0.9722098 -0.233388 0.03014081 0.9234561 -0.3825186 0.03010892 0.9234606 -0.3825101 0.04109317 0.8519207 -0.5220561 0.04109704 0.8519197 -0.5220574 0.05105894 0.7594116 -0.6486039 0.05104136 0.7594188 -0.648597 0.05973392 0.6482793 -0.7590559 0.05972713 0.6482831 -0.7590531 0.06694048 0.5213308 -0.8507251 0.06693756 0.5213329 -0.8507241 0.07250183 0.3816914 -0.9214419 0.3265655 0.5213263 -0.7883996 0.4458734 0.521328 -0.7276085 0.4458649 0.5213336 -0.7276096 0.5542148 0.5213357 -0.6488875 0.5542006 0.5213455 -0.6488918 0.6488799 0.5213481 -0.5542121 0.6489136 0.5213233 -0.554196 0.7276251 0.521318 -0.4458579 0.7275946 0.5213426 -0.4458789 0.7883846 0.5213432 -0.3265748 0.7884009 0.5213283 -0.3265592 0.8297767 0.5213286 -0.1992161 0.8297652 0.5213412 -0.1992312 0.8507174 0.5213415 -0.06695371 0.8507252 0.5213308 -0.06693947 0.2157636 0.381692 -0.8987532 0.3537098 0.3816932 -0.8539319 0.3537255 0.3816805 -0.853931 0.4829313 0.381678 -0.7880985 0.4829646 0.3816506 -0.7880914 0.600287 0.3816462 -0.7028526 0.6002576 0.3816715 -0.7028639 0.702857 0.3816719 -0.6002656 0.7028526 0.3816758 -0.6002681 0.7880869 0.3816789 -0.4829494 0.7880915 0.3816741 -0.4829457 0.8539417 0.3816743 -0.3537065 0.8539232 0.3816966 -0.3537272 0.8987446 0.3816953 -0.2157935 0.8987559 0.3816786 -0.215776 0.9214478 0.3816769 -0.07250428 0.9214457 0.3816808 -0.07250881 0.07630044 0.2327601 -0.9695365 0.2270257 0.2327596 -0.945665 0.2270328 0.232753 -0.9456648 0.3721876 0.2327517 -0.8985005 0.372174 0.2327644 -0.8985028 0.5081641 0.2327616 -0.8292112 0.5081423 0.2327827 -0.8292186 0.6315794 0.2327838 -0.7395399 0.6316067 0.2327555 -0.7395255 0.7395346 0.2327553 -0.6315962 0.7395243 0.2327671 -0.6316039 0.8292191 0.232767 -0.5081489 0.8292111 0.2327775 -0.5081571 0.8984924 0.2327798 -0.3721894 0.8985059 0.2327582 -0.3721703 0.9456617 0.2327617 -0.2270373 0.9456681 0.2327485 -0.2270244 0.9695398 0.2327485 -0.07629334 0.9695412 0.2327442 -0.07628881 0.07822114 0.07821494 -0.9938631 0.232729 0.07821553 -0.9693914 0.2327206 0.07822388 -0.9693927 0.3815124 0.07822632 -0.9210478 0.3815262 0.07821196 -0.9210432 0.5208953 0.07821565 -0.8500297 0.5209024 0.07820779 -0.850026 0.6474542 0.07820886 -0.7580808 0.6474494 0.07821464 -0.7580842 0.7580813 0.0782147 -0.6474529 0.7580733 0.07822585 -0.6474609 0.8500203 0.07822442 -0.5209093 0.8500292 0.07820934 -0.5208969 0.9210509 0.07820719 -0.3815087 0.9210451 0.07821971 -0.3815199 0.9693935 0.07821494 -0.2327201 0.9693978 0.07820111 -0.2327068 0.9938656 0.07820188 -0.07820284 0.9938606 0.07823306 -0.07823401 0.07654041 0.9968972 -0.01837354 0.07630556 0.2327553 -0.9695373 0.07252073 0.3816757 -0.9214469 0.2157865 0.3816735 -0.8987556 0.1992236 0.5213356 -0.8297706 0.3265552 0.5213332 -0.7883993 0.2913699 0.6482738 -0.703452 0.3978329 0.6482737 -0.6492074 0.3399354 0.7594223 -0.5547267 0.4225112 0.7594234 -0.4947326 0.3400831 0.8519204 -0.3982148 0.3982195 0.8519206 -0.3400772 0.2917776 0.9234593 -0.2491764 0.3271593 0.9234586 -0.2004766 0.1996151 0.9722096 -0.1223201 0.2162998 0.972209 -0.08957612 0.07272469 0.9968972 -0.03011739 -0.9992293 0.039254 0 -0.9969171 0.07846152 9.06956e-5 -0.993067 0.1175501 0 -0.9807885 0.1950743 0 -0.9723722 0.2334359 9.07601e-5 -0.9624552 0.2714406 0 -0.9381867 0.3461297 0 -0.9238776 0.3826882 9.08502e-5 -0.9081448 0.4186561 0 -0.8724964 0.4886204 0 -0.8526376 0.5225028 9.10752e-5 -0.8314631 0.55558 0 -0.7604137 0.649439 0 -0.7604137 0.649439 0 -0.649445 0.7604086 0 -0.649445 0.7604086 0 -0.5224974 0.8526409 0 -0.5224974 0.8526409 0 -0.3826882 0.9238776 0 -0.3826882 0.9238775 0 -0.2334272 0.9723743 0 -0.2334272 0.9723743 0 -0.07847261 0.9969163 0 -0.07847261 0.9969162 0 0 0.07844942 0.9969182 0 0.07844942 0.9969182 0 0.2334474 0.9723695 0 0.2334474 0.9723695 0 0.3826881 0.9238775 0 0.3826881 0.9238775 0 0.5225027 0.8526375 0 0.5225027 0.8526375 0 0.649439 0.7604137 0 0.649439 0.7604137 0 0.7604137 0.649439 0 0.7604137 0.649439 0 0.8526375 0.5225027 0 0.8526375 0.5225027 0 0.9238775 0.3826881 0 0.9238775 0.3826881 0 0.9723749 0.2334244 0 0.9723749 0.2334244 0 0.9969162 0.07847356 0 0.9969162 0.07847356 0.9938632 0.07823324 0.07820069 0.1223495 0.9722119 0.1995865 0.006164252 0.9968973 0.07847207 0.04113835 0.9968972 0.06710827 0.05111461 0.9968972 0.05985999 0.1520231 0.9722104 0.1780333 0.1520332 0.9722113 0.1780198 0.249186 0.9234563 0.2917786 0.05986082 0.9968973 0.05111354 0.08958035 0.972211 0.2162894 0.05468738 0.9722114 0.2276276 0.054659 0.9722098 0.2276416 0.01833391 0.9722095 0.2333939 0.0183621 0.972211 0.233385 0.1780319 0.9722117 0.1520166 0.1780222 0.9722106 0.1520352 0.2917736 0.9234591 0.2491817 0.2917685 0.9234572 0.2491949 0.3982001 0.851922 0.3400965 0.06711202 0.9968972 0.04113316 0.2004875 0.9234584 0.3271534 0.1468215 0.9234585 0.3544968 0.1468266 0.9234594 0.3544921 0.08958309 0.9234594 0.3730919 0.08958029 0.9234589 0.3730937 0.03009539 0.9234584 0.3825164 0.03009903 0.923459 0.3825147 0.1996067 0.9722089 0.1223396 0.1996183 0.9722108 0.1223052 0.3271601 0.9234643 0.2004493 0.3271521 0.9234591 0.2004867 0.4464961 0.8519221 0.2736237 0.4464961 0.851922 0.273624 0.5547308 0.7594115 0.3399529 0.07272469 0.9968972 0.03011745 0.3400939 0.851922 0.3982021 0.2736237 0.851922 0.4464963 0.2736125 0.851917 0.4465127 0.2003929 0.851916 0.48382 0.2004057 0.8519206 0.4838066 0.122259 0.8519216 0.5091977 0.1222403 0.8519157 0.5092121 0.04107987 0.8519157 0.5220652 0.04108655 0.8519176 0.5220616 0.2162919 0.9722112 0.08957284 0.2162864 0.9722094 0.08960515 0.3544846 0.9234571 0.1468592 0.354487 0.9234632 0.146816 0.4838212 0.8519181 0.2003816 0.4838207 0.8519214 0.2003682 0.6010789 0.7594329 0.2489292 0.6010823 0.7594128 0.2489821 0.7034488 0.6482706 0.2913846 0.07654041 0.9968972 0.01837354 0.4947358 0.7594099 0.4225319 0.422536 0.7594112 0.4947301 0.4225469 0.7594216 0.4947049 0.339927 0.759422 0.5547325 0.3399217 0.7594181 0.5547409 0.2489823 0.7594168 0.6010773 0.2489745 0.7594123 0.6010862 0.1518695 0.7594112 0.6326375 0.1518965 0.7594245 0.6326151 0.05104446 0.759424 0.6485905 0.051041 0.7594226 0.6485925 0.2276424 0.9722102 0.05464583 0.2276425 0.9722105 0.05464076 0.3731001 0.9234588 0.08955484 0.3731008 0.923458 0.08956146 0.5092003 0.851924 0.1222316 0.5092056 0.8519167 0.1222605 0.6326189 0.7594223 0.151892 0.6326135 0.7594314 0.1518684 0.7403686 0.6482776 0.1777366 0.7403713 0.6482713 0.1777486 0.8297683 0.521344 0.199211 0.07847207 0.9968972 0.006177425 0.6492043 0.6482939 0.3978049 0.5789725 0.6482944 0.4944747 0.5789664 0.6482816 0.4944986 0.4945086 0.6482837 0.5789555 0.494501 0.6482737 0.5789732 0.3978135 0.6482745 0.6492184 0.3978252 0.6482858 0.6492 0.29137 0.6482869 0.7034398 0.2913666 0.6482843 0.7034438 0.1777657 0.6482859 0.7403544 0.177748 0.648274 0.7403691 0.05973416 0.6482764 0.7590584 0.05973875 0.6482791 0.7590556 0.233385 0.9722108 0.01837247 0.2333862 0.9722104 0.01838064 0.3825144 0.9234582 0.03012537 0.3825133 0.9234589 0.03012108 0.5220611 0.8519168 0.0411098 0.5220526 0.8519232 0.04108583 0.6485924 0.7594224 0.05104458 0.6485916 0.7594231 0.05104273 0.7590557 0.6482792 0.05973601 0.7590569 0.6482776 0.05973887 0.8507243 0.5213304 0.06695324 0.8507187 0.5213417 0.06693714 0.9214462 0.381681 0.07250219 0.7883911 0.5213426 0.3265599 0.7276117 0.5213438 0.4458497 0.7276051 0.5213104 0.4458996 0.6488974 0.5213106 0.5542269 0.648908 0.5213354 0.5541912 0.5542161 0.5213326 0.648889 0.5542181 0.5213356 0.6488849 0.4458715 0.5213339 0.7276054 0.4458666 0.5213282 0.7276124 0.3265569 0.521326 0.7884033 0.3265559 0.5213251 0.7884044 0.1992135 0.5213265 0.8297787 0.1992139 0.5213267 0.8297784 0.06695353 0.5213246 0.8507279 0.06696081 0.5213301 0.8507239 0.8987523 0.3816875 0.2157751 0.8539357 0.3816853 0.3537092 0.8539347 0.381671 0.3537271 0.7880839 0.3816682 0.482963 0.7880894 0.3816894 0.4829372 0.7028514 0.3816895 0.6002608 0.7028437 0.3816724 0.6002808 0.6002945 0.3816729 0.7028317 0.600278 0.3816465 0.7028601 0.4829374 0.3816497 0.7881085 0.4829522 0.3816685 0.7880903 0.3537027 0.3816702 0.8539451 0.3537236 0.3816928 0.8539264 0.2157728 0.3816922 0.8987509 0.2157541 0.3816744 0.898763 0.0725274 0.3816758 0.9214463 0.07253229 0.3816801 0.9214441 0.9695399 0.2327502 0.07628685 0.9456635 0.2327536 0.2270378 0.9456638 0.2327694 0.2270206 0.8984962 0.2327711 0.3721858 0.8984985 0.2327839 0.3721721 0.829219 0.2327839 0.5081412 0.8292112 0.2327613 0.5081644 0.7395232 0.2327595 0.6316077 0.7395287 0.2327702 0.6315975 0.6315956 0.2327728 0.7395296 0.6315968 0.2327747 0.7395279 0.5081537 0.2327731 0.8292145 0.5081375 0.2327524 0.8292301 0.3721874 0.232754 0.8984999 0.3721761 0.2327413 0.898508 0.227015 0.2327415 0.945672 0.2270432 0.2327705 0.9456582 0.0763176 0.2327718 0.9695323 0.07631218 0.2327666 0.9695339 0.9938633 0.07820111 0.07823324 0.9693955 0.07819819 0.2327177 0.9693967 0.07820641 0.2327094 0.9210492 0.07820588 0.381513 0.9210482 0.07820266 0.3815162 0.8500183 0.07820284 0.5209157 0.8500254 0.07821804 0.520902 0.7580863 0.0782181 0.6474466 0.7580842 0.07821464 0.6474494 0.6474468 0.07821464 0.7580865 0.6474493 0.0782181 0.758084 0.5208863 0.07821792 0.850035 0.5209013 0.07823616 0.8500241 0.3815122 0.07823419 0.9210472 0.3815151 0.07823747 0.9210457 0.2327402 0.07823574 0.969387 0.232732 0.07822722 0.9693897 0.07822704 0.07822704 0.9938617 0.07820916 0.07820916 0.9938645 0.01838767 0.9968973 0.07653588 0.9695408 0.232744 0.0762934 0.921448 0.3816754 0.07250899 0.8987541 0.3816733 0.2157927 0.8297718 0.5213313 0.19923 0.7883915 0.521331 0.3265776 0.7034493 0.6482669 0.2913917 0.6491997 0.6482682 0.3978544 0.5547301 0.7594088 0.3399598 0.4947347 0.7594082 0.422536 0.3982018 0.8519235 0.3400906 0.340097 0.8519238 0.3981958 0.2491943 0.9234586 0.2917642 0.2004911 0.9234592 0.3271489 0.1223281 0.9722102 0.1996073 0.08956211 0.9722098 0.2163023 0.03011298 0.9968972 0.07272613 0.03927826 0 -0.9992283 0.07846152 9.06397e-5 -0.9969171 0.1175262 0 -0.9930697 0.1950743 0 -0.9807885 0.2334359 9.07601e-5 -0.9723722 0.2714406 0 -0.9624552 0.3461083 0 -0.9381945 0.3826985 9.09281e-5 -0.9238733 0.4186961 0 -0.9081264 0.4886204 0 -0.8724964 0.5225028 9.10752e-5 -0.8526376 0.55558 0 -0.831463 0.649439 0 -0.7604137 0.649439 0 -0.7604137 0.7604034 0 -0.649451 0.7604034 0 -0.649451 0.8526409 0 -0.5224974 0.8526409 0 -0.5224974 0.9238758 0 -0.3826925 0.9238758 0 -0.3826925 0.9723756 0 -0.2334217 0.9723756 0 -0.2334216 0.9969161 0 -0.07847452 0.9969162 0 -0.07847452 -0.0782262 0.07820904 0.9938632 -0.1996178 0.9722104 0.12231 -0.07847112 0.9968972 0.006177365 -0.06711751 0.9968972 0.04112428 -0.0598548 0.9968972 0.05112063 -0.1780171 0.9722107 0.1520403 -0.1780172 0.9722107 0.1520402 -0.2917698 0.9234571 0.2491936 -0.05111783 0.9968972 0.05985766 -0.2162869 0.9722101 0.08959615 -0.2276436 0.9722099 0.05464607 -0.2276418 0.9722101 0.05464982 -0.2333874 0.9722102 0.01837265 -0.2333878 0.9722101 0.01837152 -0.1520306 0.972211 0.1780239 -0.1520348 0.9722107 0.1780217 -0.2491799 0.9234602 0.2917714 -0.249202 0.923457 0.291763 -0.3401086 0.8519194 0.3981954 -0.04113572 0.9968972 0.06711018 -0.3271536 0.9234605 0.2004774 -0.3544824 0.9234605 0.1468431 -0.3544947 0.923458 0.1468294 -0.3730983 0.9234582 0.0895695 -0.3730974 0.9234584 0.08957087 -0.3825149 0.9234586 0.03011035 -0.3825146 0.9234586 0.03011089 -0.1223456 0.9722099 0.1995983 -0.1223266 0.972211 0.1996048 -0.2004912 0.9234592 0.327149 -0.2004855 0.92346 0.3271502 -0.2736285 0.8519164 0.4465041 -0.273615 0.8519198 0.4465059 -0.3399373 0.7594147 0.5547358 -0.03011733 0.9968972 0.07272434 -0.3981936 0.8519216 0.3401052 -0.4465031 0.8519216 0.2736139 -0.4465088 0.8519198 0.2736101 -0.4838144 0.8519192 0.2003929 -0.4838027 0.8519232 0.2004041 -0.5091992 0.8519227 0.1222453 -0.5091974 0.8519234 0.1222476 -0.5220513 0.8519235 0.04109501 -0.5220562 0.851921 0.04108613 -0.08957368 0.9722107 0.2162939 -0.0895816 0.9722102 0.2162925 -0.1468205 0.9234596 0.3544943 -0.1468232 0.9234591 0.3544941 -0.2003845 0.8519214 0.4838139 -0.2004045 0.8519165 0.4838144 -0.2489797 0.7594121 0.6010844 -0.2489735 0.7594144 0.6010839 -0.2913701 0.6482868 0.70344 -0.0183835 0.9968972 0.07653695 -0.4225384 0.7594183 0.4947172 -0.4947122 0.7594186 0.4225437 -0.4947285 0.7594119 0.4225367 -0.5547421 0.7594121 0.3399329 -0.5547326 0.7594164 0.3399389 -0.6010764 0.7594177 0.248982 -0.6010782 0.7594168 0.2489804 -0.6326282 0.7594168 0.1518808 -0.6326344 0.7594131 0.1518733 -0.6486033 0.759413 0.05104547 -0.648598 0.7594169 0.05105441 -0.05467647 0.9722099 0.2276368 -0.05466228 0.9722106 0.227637 -0.08959084 0.9234578 0.373094 -0.08958011 0.9234594 0.3730928 -0.1222612 0.8519157 0.509207 -0.1222408 0.851921 0.5092032 -0.151869 0.7594244 0.6326218 -0.1518998 0.7594124 0.6326287 -0.1777675 0.6482765 0.7403622 -0.1777481 0.6482869 0.7403579 -0.199217 0.5213226 0.8297804 -0.006165206 0.9968973 0.07847207 -0.3978266 0.6482827 0.6492024 -0.4944962 0.6482829 0.578967 -0.4944878 0.6482874 0.5789692 -0.5789712 0.6482865 0.4944866 -0.5789765 0.6482834 0.4944843 -0.6492008 0.6482827 0.3978288 -0.6492034 0.6482812 0.3978273 -0.7034416 0.6482797 0.2913817 -0.7034452 0.6482773 0.2913786 -0.7403686 0.6482778 0.1777366 -0.7403607 0.6482841 0.1777461 -0.7590498 0.648285 0.05974858 -0.7590556 0.6482791 0.05973875 -0.01833605 0.9722114 0.2333852 -0.01836168 0.9722101 0.2333889 -0.03009408 0.9234591 0.3825148 -0.03009992 0.9234583 0.3825164 -0.04108071 0.8519179 0.5220617 -0.04108673 0.8519163 0.5220638 -0.05104458 0.7594224 0.6485924 -0.05104184 0.7594236 0.6485913 -0.05973494 0.6482793 0.7590558 -0.05973798 0.6482776 0.7590569 -0.06695222 0.5213304 0.8507244 -0.06696206 0.5213235 0.8507279 -0.07252824 0.3816803 0.9214444 -0.3265646 0.5213229 0.7884023 -0.4458749 0.5213233 0.7276109 -0.4458729 0.5213245 0.7276112 -0.554213 0.5213245 0.6488982 -0.5542181 0.5213209 0.6488966 -0.6489045 0.5213224 0.5542075 -0.6489014 0.5213247 0.5542089 -0.7276102 0.5213246 0.4458745 -0.7275974 0.521335 0.4458833 -0.788394 0.5213346 0.3265658 -0.7883973 0.5213315 0.3265625 -0.8297762 0.5213306 0.1992129 -0.8297721 0.5213351 0.1992184 -0.8507225 0.5213334 0.06695312 -0.8507246 0.5213305 0.06694924 -0.2157554 0.3816893 0.8987563 -0.3537086 0.3816893 0.8539342 -0.3537263 0.3816749 0.8539332 -0.4829377 0.3816744 0.7880964 -0.482941 0.3816717 0.7880957 -0.6002882 0.3816729 0.702837 -0.6002884 0.3816727 0.7028369 -0.7028443 0.3816723 0.60028 -0.7028353 0.3816808 0.6002852 -0.7880849 0.381681 0.4829511 -0.7880966 0.3816689 0.4829416 -0.8539413 0.3816705 0.3537116 -0.8539372 0.3816755 0.3537162 -0.8987553 0.3816775 0.2157804 -0.8987579 0.3816738 0.2157765 -0.9214475 0.3816756 0.07251489 -0.921445 0.3816805 0.07252055 -0.07631117 0.2327718 0.9695329 -0.2270162 0.2327709 0.9456645 -0.2270445 0.2327448 0.9456641 -0.3721882 0.2327455 0.8985018 -0.3721745 0.2327582 0.8985043 -0.5081444 0.2327582 0.8292242 -0.5081357 0.2327668 0.8292272 -0.6316149 0.2327668 0.7395149 -0.6316088 0.2327731 0.7395181 -0.7395151 0.2327706 0.6316133 -0.7395246 0.2327596 0.631606 -0.8292237 0.2327609 0.5081441 -0.8292139 0.2327738 0.5081542 -0.8985 0.2327733 0.372175 -0.8985013 0.2327713 0.3721733 -0.9456598 0.2327697 0.2270369 -0.9456622 0.2327648 0.2270321 -0.9695356 0.232762 0.07630544 -0.9695377 0.2327554 0.07629865 -0.07820808 0.07822692 0.9938632 -0.2327404 0.07822722 0.9693877 -0.2327347 0.07823288 0.9693886 -0.3815122 0.07823282 0.9210473 -0.3815153 0.0782296 0.9210462 -0.5208858 0.07822996 0.8500342 -0.5208966 0.07821804 0.8500287 -0.6474587 0.07821804 0.7580758 -0.647455 0.07822257 0.7580786 -0.7580799 0.07822388 0.6474534 -0.758084 0.0782181 0.6474493 -0.8500228 0.0782181 0.5209061 -0.8500257 0.07821327 0.5209022 -0.9210487 0.07821381 0.3815128 -0.9210472 0.07821702 0.3815158 -0.9693911 0.07821828 0.2327289 -0.9693937 0.07820993 0.2327209 -0.9938639 0.07821303 0.07821303 -0.9938626 0.07822108 0.07822108 -0.07653951 0.9968972 0.01837337 -0.07631677 0.2327666 0.9695337 -0.07253146 0.3816776 0.9214453 -0.2157684 0.3816788 0.8987576 -0.1992083 0.5213284 0.8297787 -0.3265563 0.5213284 0.788402 -0.2913648 0.6482895 0.7034397 -0.3978124 0.64829 0.6492036 -0.339926 0.759419 0.5547368 -0.4225369 0.7594189 0.4947177 -0.3400998 0.8519217 0.398198 -0.3981937 0.8519216 0.3401051 -0.2917609 0.9234585 0.2491987 -0.3271656 0.9234583 0.2004677 -0.1996154 0.9722105 0.1223125 -0.2162809 0.9722107 0.08960467 -0.07272034 0.9968972 0.03012788 0.07844942 0 0.9969182 0.07844942 0 0.9969182 0.2334474 0 0.9723695 0.2334474 0 0.9723695 0.3826881 0 0.9238775 0.3826881 0 0.9238775 0.5225027 0 0.8526375 0.5225027 0 0.8526375 0.649439 0 0.7604137 0.649439 0 0.7604137 0.7604137 0 0.649439 0.7604137 0 0.649439 0.8526375 0 0.5225027 0.8526375 0 0.5225027 0.9238775 0 0.3826881 0.9238775 0 0.3826881 0.9723749 0 0.2334244 0.9723749 0 0.2334244 0.9969162 0 0.07847356 0.9969162 0 0.07847356 0.9969162 -0.07847261 0 0.9969163 -0.07847261 0 0.9723743 -0.2334272 0 0.9723743 -0.2334272 0 0.9238775 -0.3826882 0 0.9238776 -0.3826882 0 0.8526409 -0.5224974 0 0.8526409 -0.5224974 0 0.7604086 -0.649445 0 0.7604086 -0.649445 0 0.649439 -0.7604137 0 0.649439 -0.7604137 0 0.55558 -0.8314631 0 0.5225028 -0.8526376 9.10751e-5 0.4886204 -0.8724964 0 0.4186561 -0.9081448 0 0.3826882 -0.9238776 9.08501e-5 0.3461297 -0.9381867 0 0.2714406 -0.9624552 0 0.2334359 -0.9723722 9.07601e-5 0.1950743 -0.9807885 0 0.1175501 -0.993067 0 0.07846152 -0.9969171 9.06956e-5 0.039254 -0.9992293 0 -0.07844847 0 0.9969182 -0.07844847 0 0.9969182 -0.2334501 0 0.9723687 -0.2334502 0 0.9723688 -0.3826882 0 0.9238777 -0.3826882 0 0.9238776 -0.5224974 0 0.8526409 -0.5224974 0 0.8526409 -0.649445 0 0.7604086 -0.649445 0 0.7604086 -0.7604137 0 0.649439 -0.7604137 0 0.649439 -0.831463 0 0.55558 -0.8526376 9.10751e-5 0.5225028 -0.8724964 0 0.4886204 -0.9081448 0 0.4186561 -0.9238776 9.08501e-5 0.3826882 -0.9381867 0 0.3461297 -0.9624587 0 0.2714279 -0.9723722 9.07339e-5 0.2334359 -0.9807866 0 0.1950836 -0.993067 0 0.1175501 -0.9969171 9.06956e-5 0.07846152 -0.9992293 0 0.039254 0.07822114 -0.9938632 0.07821297 0.9722114 -0.1223425 0.1995933 0.9968973 -0.006165206 0.07847207 0.9968972 -0.04113578 0.06711012 0.9968972 -0.05111783 0.05985766 0.9722107 -0.1520316 0.178025 0.9722108 -0.1520344 0.1780211 0.9234563 -0.249186 0.2917786 0.9968972 -0.0598548 0.05112063 0.9722105 -0.08958119 0.2162914 0.9722108 -0.05467551 0.2276328 0.9722101 -0.05466276 0.227639 0.9722096 -0.01833665 0.2333927 0.972211 -0.01836138 0.233385 0.9722107 -0.1780171 0.1520404 0.9722107 -0.1780172 0.1520403 0.9234588 -0.2917667 0.2491909 0.9234574 -0.291763 0.2492005 0.8519216 -0.3981937 0.3401051 0.9968972 -0.06711751 0.04112428 0.9234592 -0.2004864 0.3271515 0.9234591 -0.1468209 0.3544952 0.9234595 -0.1468229 0.3544934 0.9234596 -0.08958983 0.3730898 0.9234581 -0.08958077 0.3730958 0.9234581 -0.03009426 0.3825172 0.923459 -0.0300998 0.3825148 0.9722106 -0.1996169 0.1223095 0.9722104 -0.1996158 0.1223129 0.9234609 -0.3271604 0.2004646 0.9234588 -0.3271572 0.2004795 0.8519197 -0.4465057 0.2736155 0.8519214 -0.4465067 0.2736088 0.7594168 -0.5547375 0.3399301 0.9968972 -0.07272034 0.03012782 0.8519197 -0.3401018 0.3982006 0.8519203 -0.2736252 0.4464987 0.8519168 -0.2736175 0.44651 0.8519158 -0.200388 0.4838223 0.8519209 -0.2004017 0.4838079 0.8519216 -0.122259 0.5091977 0.8519164 -0.1222425 0.5092104 0.8519161 -0.04108095 0.5220646 0.8519176 -0.04108655 0.5220616 0.97221 -0.2162837 0.08960586 0.9722105 -0.2162855 0.08959555 0.9234575 -0.3544891 0.1468459 0.92346 -0.3544901 0.1468275 0.8519237 -0.4838075 0.2003901 0.8519197 -0.483808 0.2004062 0.7594166 -0.6010774 0.2489824 0.7594176 -0.6010773 0.24898 0.6482772 -0.7034437 0.2913825 0.9968972 -0.07653951 0.01837337 0.759418 -0.4947231 0.4225321 0.7594183 -0.4225373 0.4947183 0.7594189 -0.422538 0.4947167 0.7594195 -0.3399344 0.5547311 0.7594152 -0.3399285 0.5547408 0.7594147 -0.2489785 0.6010816 0.7594123 -0.2489745 0.6010862 0.7594113 -0.1518726 0.6326366 0.7594233 -0.1518968 0.6326165 0.7594236 -0.05104446 0.648591 0.7594225 -0.05104184 0.6485925 0.9722102 -0.2276424 0.05464583 0.97221 -0.2276424 0.05464994 0.9234584 -0.3730976 0.08956938 0.9234582 -0.3730978 0.08957099 0.8519235 -0.509198 0.1222451 0.8519228 -0.5091984 0.1222479 0.7594128 -0.6326327 0.1518819 0.7594164 -0.6326305 0.1518724 0.6482846 -0.740363 0.1777352 0.6482782 -0.7403656 0.1777472 0.5213354 -0.8297734 0.1992123 0.9968972 -0.07847112 0.006177365 0.6482827 -0.6492024 0.3978266 0.6482833 -0.5789733 0.4944884 0.6482863 -0.5789747 0.4944828 0.6482877 -0.4944936 0.578964 0.6482832 -0.4944901 0.5789719 0.6482821 -0.397816 0.6492093 0.6482895 -0.3978235 0.6491973 0.6482896 -0.2913691 0.7034376 0.6482869 -0.2913657 0.7034417 0.6482875 -0.1777653 0.7403531 0.6482772 -0.17775 0.7403659 0.6482774 -0.05973505 0.7590572 0.6482792 -0.05973786 0.7590557 0.9722102 -0.2333878 0.01837265 0.9722102 -0.2333876 0.01837152 0.9234587 -0.3825147 0.03011029 0.9234585 -0.3825147 0.03011089 0.8519207 -0.5220559 0.04109537 0.8519232 -0.5220526 0.04108583 0.7594172 -0.6485984 0.05104506 0.7594134 -0.6486022 0.05105477 0.6482787 -0.7590551 0.059749 0.6482847 -0.7590509 0.05973839 0.5213304 -0.8507243 0.06695324 0.5213333 -0.8507229 0.06694906 0.3816807 -0.9214453 0.07251471 0.5213344 -0.7883957 0.3265618 0.5213355 -0.7276046 0.445871 0.5213251 -0.7276025 0.4458864 0.5213248 -0.6489034 0.5542065 0.5213225 -0.6489025 0.5542098 0.5213208 -0.5542144 0.6488999 0.5213243 -0.5542168 0.648895 0.5213246 -0.4458745 0.7276102 0.5213234 -0.4458733 0.7276118 0.5213226 -0.3265576 0.7884052 0.521328 -0.3265633 0.7883992 0.5213286 -0.1992161 0.8297767 0.5213228 -0.1992092 0.8297821 0.5213232 -0.06695258 0.8507289 0.5213301 -0.0669617 0.8507239 0.3816773 -0.8987564 0.2157762 0.3816757 -0.8539393 0.3537107 0.3816707 -0.853939 0.353717 0.3816685 -0.7880893 0.4829537 0.3816805 -0.7880924 0.482939 0.3816811 -0.7028415 0.6002777 0.3816726 -0.7028378 0.6002874 0.3816727 -0.6002883 0.7028371 0.3816729 -0.6002884 0.7028369 0.3816716 -0.4829383 0.7880973 0.3816743 -0.4829404 0.7880948 0.3816744 -0.353711 0.8539398 0.3816888 -0.3537243 0.853928 0.3816896 -0.2157673 0.8987533 0.3816791 -0.2157564 0.8987604 0.3816775 -0.07252836 0.9214456 0.3816802 -0.0725314 0.9214442 0.2327619 -0.9695362 0.07629853 0.2327648 -0.945661 0.2270371 0.2327696 -0.9456611 0.2270319 0.2327713 -0.8985005 0.3721752 0.2327732 -0.8985009 0.3721731 0.232774 -0.8292211 0.5081425 0.2327612 -0.8292165 0.5081557 0.2327594 -0.7395172 0.631615 0.2327704 -0.7395227 0.6316043 0.2327732 -0.6316139 0.7395137 0.2327669 -0.6316098 0.7395192 0.2327669 -0.5081434 0.8292225 0.2327584 -0.5081367 0.8292289 0.2327584 -0.372187 0.8984989 0.2327457 -0.3721757 0.8985069 0.2327443 -0.2270177 0.9456707 0.2327705 -0.2270432 0.9456582 0.2327718 -0.07631665 0.9695324 0.2327667 -0.07631129 0.969534 0.07821309 -0.9938633 0.07822114 0.07820987 -0.9693918 0.2327291 0.07821822 -0.9693931 0.2327207 0.07821708 -0.9210484 0.3815127 0.07821381 -0.9210474 0.3815158 0.07821321 -0.8500231 0.5209063 0.07821804 -0.8500254 0.520902 0.07821804 -0.7580803 0.6474537 0.07822388 -0.7580837 0.647449 0.07822257 -0.6474586 0.7580756 0.07821804 -0.6474553 0.7580789 0.07821792 -0.5208863 0.850035 0.0782299 -0.5208961 0.8500279 0.07822954 -0.3815123 0.9210475 0.07823282 -0.3815152 0.921046 0.07823294 -0.2327403 0.9693872 0.07822722 -0.2327347 0.969389 0.07822704 -0.07822608 0.9938617 0.07820916 -0.0782082 0.9938646 0.9968972 -0.0183835 0.07653695 0.2327553 -0.9695372 0.07630556 0.3816757 -0.9214469 0.07252073 0.3816736 -0.8987569 0.2157808 0.5213309 -0.8297747 0.199219 0.5213313 -0.7883958 0.3265665 0.6482796 -0.7034434 0.2913778 0.648281 -0.6492021 0.3978296 0.7594125 -0.5547365 0.3399413 0.7594113 -0.4947187 0.4225493 0.8519216 -0.3981936 0.3401052 0.8519219 -0.3401058 0.3981922 0.9234597 -0.2491979 0.2917581 0.9234601 -0.20049 0.327147 0.9722102 -0.1223281 0.1996073 0.97221 -0.08957457 0.216296 0.9968972 -0.03011727 0.07272434 0 -0.9992293 0.039254 9.06956e-5 -0.9969171 0.07846152 0 -0.993067 0.1175501 0 -0.9807866 0.1950836 9.07338e-5 -0.9723722 0.2334359 0 -0.9624587 0.2714279 0 -0.9381867 0.3461297 9.08502e-5 -0.9238776 0.3826882 0 -0.9081448 0.4186561 0 -0.8724964 0.4886204 9.10752e-5 -0.8526376 0.5225028 0 -0.831463 0.55558 0 -0.7604137 0.649439 0 -0.7604137 0.649439 0 -0.649445 0.7604086 0 -0.649445 0.7604086 0 -0.5224974 0.8526409 0 -0.5224974 0.8526409 0 -0.3826882 0.9238776 0 -0.3826882 0.9238777 0 -0.2334502 0.9723688 0 -0.2334501 0.9723687 0 -0.07844847 0.9969182 0 -0.07844847 0.9969182</float_array>
          <technique_common>
            <accessor source="#blocks-mesh-normals-array" count="976" stride="3">
              <param name="X" type="float"/>
              <param name="Y" type="float"/>
              <param name="Z" type="float"/>
            </accessor>
          </technique_common>
        </source>
        <vertices id="blocks-mesh-vertices">
          <input semantic="POSITION" source="#blocks-mesh-positions"/>
        </vertices>
        <triangles material="Material_001-material" count="976">
          <input semantic="VERTEX" source="#blocks-mesh-vertices" offset="0"/>
          <input semantic="NORMAL" source="#blocks-mesh-normals" offset="1"/>
          <p>0 0 1 0 2 0 2 1 1 1 3 1 4 2 5 2 6 2 6 3 5 3 7 3 8 4 9 4 10 4 10 5 9 5 11 5 12 6 13 6 0 6 0 7 13 7 1 7 14 8 15 8 16 8 16 9 15 9 17 9 3 10 1 10 18 10 18 11 1 11 13 11 16 12 17 12 19 12 16 13 19 13 20 13 20 14 19 14 21 14 20 15 21 15 22 15 22 16 21 16 23 16 22 17 23 17 24 17 24 18 23 18 25 18 24 19 25 19 26 19 26 20 25 20 27 20 26 21 27 21 28 21 28 22 27 22 29 22 28 23 29 23 30 23 30 24 29 24 31 24 31 25 29 25 32 25 31 26 32 26 33 26 33 27 32 27 34 27 34 28 32 28 35 28 34 29 35 29 36 29 36 30 35 30 37 30 37 31 35 31 38 31 37 32 38 32 39 32 39 33 38 33 40 33 40 34 38 34 12 34 40 35 12 35 0 35 9 36 8 36 41 36 9 37 41 37 42 37 42 38 41 38 43 38 42 39 43 39 44 39 44 40 43 40 45 40 44 41 45 41 46 41 46 42 45 42 47 42 46 43 47 43 48 43 48 44 47 44 49 44 48 45 49 45 50 45 50 46 49 46 51 46 50 47 51 47 52 47 52 48 51 48 53 48 52 49 53 49 54 49 54 50 53 50 55 50 54 51 55 51 56 51 56 52 55 52 57 52 56 53 57 53 58 53 58 54 57 54 17 54 58 55 17 55 15 55 12 56 38 56 59 56 60 57 61 57 62 57 17 58 57 58 63 58 62 59 61 59 17 59 64 60 17 60 61 60 64 61 61 61 65 61 65 62 61 62 60 62 65 63 60 63 66 63 67 64 17 64 64 64 68 65 69 65 70 65 70 66 69 66 63 66 70 67 63 67 71 67 71 68 63 68 57 68 71 69 57 69 55 69 67 70 64 70 72 70 72 71 64 71 65 71 72 72 65 72 73 72 73 73 65 73 66 73 73 74 66 74 74 74 75 75 17 75 67 75 76 76 68 76 77 76 77 77 68 77 70 77 77 78 70 78 78 78 78 79 70 79 71 79 78 80 71 80 79 80 79 81 71 81 55 81 79 82 55 82 53 82 75 83 67 83 80 83 80 84 67 84 72 84 80 85 72 85 81 85 81 86 72 86 73 86 81 87 73 87 82 87 82 88 73 88 74 88 82 89 74 89 83 89 84 90 17 90 75 90 85 91 76 91 86 91 86 92 76 92 77 92 86 93 77 93 87 93 87 94 77 94 78 94 87 95 78 95 88 95 88 96 78 96 79 96 88 97 79 97 89 97 89 98 79 98 53 98 89 99 53 99 51 99 84 100 75 100 90 100 90 101 75 101 80 101 90 102 80 102 91 102 91 103 80 103 81 103 91 104 81 104 92 104 92 105 81 105 82 105 92 106 82 106 93 106 93 107 82 107 83 107 93 108 83 108 94 108 95 109 17 109 84 109 96 110 85 110 97 110 97 111 85 111 86 111 97 112 86 112 98 112 98 113 86 113 87 113 98 114 87 114 99 114 99 115 87 115 88 115 99 116 88 116 100 116 100 117 88 117 89 117 100 118 89 118 101 118 101 119 89 119 51 119 101 120 51 120 49 120 95 121 84 121 102 121 102 122 84 122 90 122 102 123 90 123 103 123 103 124 90 124 91 124 103 125 91 125 104 125 104 126 91 126 92 126 104 127 92 127 105 127 105 128 92 128 93 128 105 129 93 129 106 129 106 130 93 130 94 130 106 131 94 131 107 131 19 132 17 132 95 132 108 133 96 133 109 133 109 134 96 134 97 134 109 135 97 135 110 135 110 136 97 136 98 136 110 137 98 137 111 137 111 138 98 138 99 138 111 139 99 139 112 139 112 140 99 140 100 140 112 141 100 141 113 141 113 142 100 142 101 142 113 143 101 143 114 143 114 144 101 144 49 144 114 145 49 145 47 145 19 146 95 146 21 146 21 147 95 147 102 147 21 148 102 148 23 148 23 149 102 149 103 149 23 150 103 150 25 150 25 151 103 151 104 151 25 152 104 152 27 152 27 153 104 153 105 153 27 154 105 154 29 154 29 155 105 155 106 155 29 156 106 156 32 156 32 157 106 157 107 157 32 158 107 158 35 158 115 159 108 159 116 159 116 160 108 160 109 160 116 161 109 161 117 161 117 162 109 162 110 162 117 163 110 163 118 163 118 164 110 164 111 164 118 165 111 165 119 165 119 166 111 166 112 166 119 167 112 167 120 167 120 168 112 168 113 168 120 169 113 169 121 169 121 170 113 170 114 170 121 171 114 171 122 171 122 172 114 172 47 172 122 173 47 173 45 173 123 174 115 174 124 174 124 175 115 175 116 175 124 176 116 176 125 176 125 177 116 177 117 177 125 178 117 178 126 178 126 179 117 179 118 179 126 180 118 180 127 180 127 181 118 181 119 181 127 182 119 182 128 182 128 183 119 183 120 183 128 184 120 184 129 184 129 185 120 185 121 185 129 186 121 186 130 186 130 187 121 187 122 187 130 188 122 188 131 188 131 189 122 189 45 189 131 190 45 190 43 190 38 191 123 191 59 191 59 192 123 192 124 192 59 193 124 193 132 193 132 194 124 194 125 194 132 195 125 195 133 195 133 196 125 196 126 196 133 197 126 197 134 197 134 198 126 198 127 198 134 199 127 199 135 199 135 200 127 200 128 200 135 201 128 201 136 201 136 202 128 202 129 202 136 203 129 203 137 203 137 204 129 204 130 204 137 205 130 205 138 205 138 206 130 206 131 206 138 207 131 207 139 207 139 208 131 208 43 208 139 209 43 209 41 209 12 210 59 210 140 210 140 211 59 211 132 211 140 212 132 212 141 212 141 213 132 213 133 213 141 214 133 214 142 214 142 215 133 215 134 215 142 216 134 216 143 216 143 217 134 217 135 217 143 218 135 218 144 218 144 219 135 219 136 219 144 220 136 220 145 220 145 221 136 221 137 221 145 222 137 222 146 222 146 223 137 223 138 223 146 224 138 224 147 224 147 225 138 225 139 225 147 226 139 226 148 226 148 227 139 227 41 227 148 228 41 228 8 228 69 229 17 229 63 229 38 230 35 230 123 230 123 231 35 231 107 231 123 232 107 232 115 232 115 233 107 233 94 233 115 234 94 234 108 234 108 235 94 235 83 235 108 236 83 236 96 236 96 237 83 237 74 237 96 238 74 238 85 238 85 239 74 239 66 239 85 240 66 240 76 240 76 241 66 241 60 241 76 242 60 242 68 242 68 243 60 243 62 243 68 244 62 244 69 244 69 245 62 245 17 245 0 246 2 246 40 246 40 247 2 247 149 247 40 248 149 248 39 248 39 249 149 249 37 249 37 250 149 250 150 250 37 251 150 251 36 251 36 252 150 252 34 252 34 253 150 253 151 253 34 254 151 254 33 254 33 255 151 255 31 255 31 256 151 256 152 256 31 257 152 257 30 257 30 258 152 258 153 258 30 259 153 259 28 259 28 260 153 260 154 260 28 261 154 261 26 261 26 262 154 262 155 262 26 263 155 263 24 263 24 264 155 264 156 264 24 265 156 265 22 265 22 266 156 266 157 266 22 267 157 267 20 267 20 268 157 268 14 268 20 269 14 269 16 269 5 270 4 270 158 270 5 271 158 271 159 271 159 272 158 272 160 272 159 273 160 273 161 273 161 274 160 274 162 274 161 275 162 275 163 275 163 276 162 276 164 276 163 277 164 277 165 277 165 278 164 278 166 278 165 279 166 279 167 279 167 280 166 280 168 280 167 281 168 281 169 281 169 282 168 282 170 282 169 283 170 283 171 283 171 284 170 284 172 284 171 285 172 285 173 285 173 286 172 286 174 286 173 287 174 287 175 287 175 288 174 288 15 288 175 289 15 289 14 289 9 290 42 290 176 290 177 291 178 291 179 291 15 292 174 292 180 292 179 293 178 293 15 293 181 294 15 294 178 294 181 295 178 295 182 295 182 296 178 296 177 296 182 297 177 297 183 297 184 298 15 298 181 298 185 299 186 299 187 299 187 300 186 300 180 300 187 301 180 301 188 301 188 302 180 302 174 302 188 303 174 303 172 303 184 304 181 304 189 304 189 305 181 305 182 305 189 306 182 306 190 306 190 307 182 307 183 307 190 308 183 308 191 308 192 309 15 309 184 309 193 310 185 310 194 310 194 311 185 311 187 311 194 312 187 312 195 312 195 313 187 313 188 313 195 314 188 314 196 314 196 315 188 315 172 315 196 316 172 316 170 316 192 317 184 317 197 317 197 318 184 318 189 318 197 319 189 319 198 319 198 320 189 320 190 320 198 321 190 321 199 321 199 322 190 322 191 322 199 323 191 323 200 323 201 324 15 324 192 324 202 325 193 325 203 325 203 326 193 326 194 326 203 327 194 327 204 327 204 328 194 328 195 328 204 329 195 329 205 329 205 330 195 330 196 330 205 331 196 331 206 331 206 332 196 332 170 332 206 333 170 333 168 333 201 334 192 334 207 334 207 335 192 335 197 335 207 336 197 336 208 336 208 337 197 337 198 337 208 338 198 338 209 338 209 339 198 339 199 339 209 340 199 340 210 340 210 341 199 341 200 341 210 342 200 342 211 342 212 343 15 343 201 343 213 344 202 344 214 344 214 345 202 345 203 345 214 346 203 346 215 346 215 347 203 347 204 347 215 348 204 348 216 348 216 349 204 349 205 349 216 350 205 350 217 350 217 351 205 351 206 351 217 352 206 352 218 352 218 353 206 353 168 353 218 354 168 354 166 354 212 355 201 355 219 355 219 356 201 356 207 356 219 357 207 357 220 357 220 358 207 358 208 358 220 359 208 359 221 359 221 360 208 360 209 360 221 361 209 361 222 361 222 362 209 362 210 362 222 363 210 363 223 363 223 364 210 364 211 364 223 365 211 365 224 365 58 366 15 366 212 366 225 367 213 367 226 367 226 368 213 368 214 368 226 369 214 369 227 369 227 370 214 370 215 370 227 371 215 371 228 371 228 372 215 372 216 372 228 373 216 373 229 373 229 374 216 374 217 374 229 375 217 375 230 375 230 376 217 376 218 376 230 377 218 377 231 377 231 378 218 378 166 378 231 379 166 379 164 379 58 380 212 380 56 380 56 381 212 381 219 381 56 382 219 382 54 382 54 383 219 383 220 383 54 384 220 384 52 384 52 385 220 385 221 385 52 386 221 386 50 386 50 387 221 387 222 387 50 388 222 388 48 388 48 389 222 389 223 389 48 390 223 390 46 390 46 391 223 391 224 391 46 392 224 392 44 392 232 393 225 393 233 393 233 394 225 394 226 394 233 395 226 395 234 395 234 396 226 396 227 396 234 397 227 397 235 397 235 398 227 398 228 398 235 399 228 399 236 399 236 400 228 400 229 400 236 401 229 401 237 401 237 402 229 402 230 402 237 403 230 403 238 403 238 404 230 404 231 404 238 405 231 405 239 405 239 406 231 406 164 406 239 407 164 407 162 407 240 408 232 408 241 408 241 409 232 409 233 409 241 410 233 410 242 410 242 411 233 411 234 411 242 412 234 412 243 412 243 413 234 413 235 413 243 414 235 414 244 414 244 415 235 415 236 415 244 416 236 416 245 416 245 417 236 417 237 417 245 418 237 418 246 418 246 419 237 419 238 419 246 420 238 420 247 420 247 421 238 421 239 421 247 422 239 422 248 422 248 423 239 423 162 423 248 424 162 424 160 424 42 425 240 425 176 425 176 426 240 426 241 426 176 427 241 427 249 427 249 428 241 428 242 428 249 429 242 429 250 429 250 430 242 430 243 430 250 431 243 431 251 431 251 432 243 432 244 432 251 433 244 433 252 433 252 434 244 434 245 434 252 435 245 435 253 435 253 436 245 436 246 436 253 437 246 437 254 437 254 438 246 438 247 438 254 439 247 439 255 439 255 440 247 440 248 440 255 441 248 441 256 441 256 442 248 442 160 442 256 443 160 443 158 443 9 444 176 444 257 444 257 445 176 445 249 445 257 446 249 446 258 446 258 447 249 447 250 447 258 448 250 448 259 448 259 449 250 449 251 449 259 450 251 450 260 450 260 451 251 451 252 451 260 452 252 452 261 452 261 453 252 453 253 453 261 454 253 454 262 454 262 455 253 455 254 455 262 456 254 456 263 456 263 457 254 457 255 457 263 458 255 458 264 458 264 459 255 459 256 459 264 460 256 460 265 460 265 461 256 461 158 461 265 462 158 462 4 462 186 463 15 463 180 463 42 464 44 464 240 464 240 465 44 465 224 465 240 466 224 466 232 466 232 467 224 467 211 467 232 468 211 468 225 468 225 469 211 469 200 469 225 470 200 470 213 470 213 471 200 471 191 471 213 472 191 472 202 472 202 473 191 473 183 473 202 474 183 474 193 474 193 475 183 475 177 475 193 476 177 476 185 476 185 477 177 477 179 477 185 478 179 478 186 478 186 479 179 479 15 479 13 480 12 480 266 480 266 481 12 481 140 481 266 482 140 482 267 482 267 483 140 483 268 483 268 484 140 484 141 484 268 485 141 485 269 485 269 486 141 486 270 486 270 487 141 487 142 487 270 488 142 488 271 488 271 489 142 489 272 489 272 490 142 490 143 490 272 491 143 491 273 491 273 492 143 492 144 492 273 493 144 493 274 493 274 494 144 494 145 494 274 495 145 495 275 495 275 496 145 496 146 496 275 497 146 497 276 497 276 498 146 498 147 498 276 499 147 499 277 499 277 500 147 500 148 500 277 501 148 501 278 501 278 502 148 502 8 502 278 503 8 503 10 503 5 504 159 504 279 504 280 505 281 505 282 505 14 506 157 506 283 506 282 507 281 507 14 507 284 508 14 508 281 508 284 509 281 509 285 509 285 510 281 510 280 510 285 511 280 511 286 511 287 512 14 512 284 512 288 513 289 513 290 513 290 514 289 514 283 514 290 515 283 515 291 515 291 516 283 516 157 516 291 517 157 517 156 517 287 518 284 518 292 518 292 519 284 519 285 519 292 520 285 520 293 520 293 521 285 521 286 521 293 522 286 522 294 522 295 523 14 523 287 523 296 524 288 524 297 524 297 525 288 525 290 525 297 526 290 526 298 526 298 527 290 527 291 527 298 528 291 528 299 528 299 529 291 529 156 529 299 530 156 530 155 530 295 531 287 531 300 531 300 532 287 532 292 532 300 533 292 533 301 533 301 534 292 534 293 534 301 535 293 535 302 535 302 536 293 536 294 536 302 537 294 537 303 537 304 538 14 538 295 538 305 539 296 539 306 539 306 540 296 540 297 540 306 541 297 541 307 541 307 542 297 542 298 542 307 543 298 543 308 543 308 544 298 544 299 544 308 545 299 545 309 545 309 546 299 546 155 546 309 547 155 547 154 547 304 548 295 548 310 548 310 549 295 549 300 549 310 550 300 550 311 550 311 551 300 551 301 551 311 552 301 552 312 552 312 553 301 553 302 553 312 554 302 554 313 554 313 555 302 555 303 555 313 556 303 556 314 556 315 557 14 557 304 557 316 558 305 558 317 558 317 559 305 559 306 559 317 560 306 560 318 560 318 561 306 561 307 561 318 562 307 562 319 562 319 563 307 563 308 563 319 564 308 564 320 564 320 565 308 565 309 565 320 566 309 566 321 566 321 567 309 567 154 567 321 568 154 568 153 568 315 569 304 569 322 569 322 570 304 570 310 570 322 571 310 571 323 571 323 572 310 572 311 572 323 573 311 573 324 573 324 574 311 574 312 574 324 575 312 575 325 575 325 576 312 576 313 576 325 577 313 577 326 577 326 578 313 578 314 578 326 579 314 579 327 579 175 580 14 580 315 580 328 581 316 581 329 581 329 582 316 582 317 582 329 583 317 583 330 583 330 584 317 584 318 584 330 585 318 585 331 585 331 586 318 586 319 586 331 587 319 587 332 587 332 588 319 588 320 588 332 589 320 589 333 589 333 590 320 590 321 590 333 591 321 591 334 591 334 592 321 592 153 592 334 593 153 593 152 593 175 594 315 594 173 594 173 595 315 595 322 595 173 596 322 596 171 596 171 597 322 597 323 597 171 598 323 598 169 598 169 599 323 599 324 599 169 600 324 600 167 600 167 601 324 601 325 601 167 602 325 602 165 602 165 603 325 603 326 603 165 604 326 604 163 604 163 605 326 605 327 605 163 606 327 606 161 606 335 607 328 607 336 607 336 608 328 608 329 608 336 609 329 609 337 609 337 610 329 610 330 610 337 611 330 611 338 611 338 612 330 612 331 612 338 613 331 613 339 613 339 614 331 614 332 614 339 615 332 615 340 615 340 616 332 616 333 616 340 617 333 617 341 617 341 618 333 618 334 618 341 619 334 619 342 619 342 620 334 620 152 620 342 621 152 621 151 621 343 622 335 622 344 622 344 623 335 623 336 623 344 624 336 624 345 624 345 625 336 625 337 625 345 626 337 626 346 626 346 627 337 627 338 627 346 628 338 628 347 628 347 629 338 629 339 629 347 630 339 630 348 630 348 631 339 631 340 631 348 632 340 632 349 632 349 633 340 633 341 633 349 634 341 634 350 634 350 635 341 635 342 635 350 636 342 636 351 636 351 637 342 637 151 637 351 638 151 638 150 638 159 639 343 639 279 639 279 640 343 640 344 640 279 641 344 641 352 641 352 642 344 642 345 642 352 643 345 643 353 643 353 644 345 644 346 644 353 645 346 645 354 645 354 646 346 646 347 646 354 647 347 647 355 647 355 648 347 648 348 648 355 649 348 649 356 649 356 650 348 650 349 650 356 651 349 651 357 651 357 652 349 652 350 652 357 653 350 653 358 653 358 654 350 654 351 654 358 655 351 655 359 655 359 656 351 656 150 656 359 657 150 657 149 657 5 658 279 658 360 658 360 659 279 659 352 659 360 660 352 660 361 660 361 661 352 661 353 661 361 662 353 662 362 662 362 663 353 663 354 663 362 664 354 664 363 664 363 665 354 665 355 665 363 666 355 666 364 666 364 667 355 667 356 667 364 668 356 668 365 668 365 669 356 669 357 669 365 670 357 670 366 670 366 671 357 671 358 671 366 672 358 672 367 672 367 673 358 673 359 673 367 674 359 674 368 674 368 675 359 675 149 675 368 676 149 676 2 676 289 677 14 677 283 677 159 678 161 678 343 678 343 679 161 679 327 679 343 680 327 680 335 680 335 681 327 681 314 681 335 682 314 682 328 682 328 683 314 683 303 683 328 684 303 684 316 684 316 685 303 685 294 685 316 686 294 686 305 686 305 687 294 687 286 687 305 688 286 688 296 688 296 689 286 689 280 689 296 690 280 690 288 690 288 691 280 691 282 691 288 692 282 692 289 692 289 693 282 693 14 693 4 694 6 694 369 694 4 695 369 695 265 695 265 696 369 696 370 696 265 697 370 697 264 697 264 698 370 698 371 698 264 699 371 699 263 699 263 700 371 700 372 700 263 701 372 701 262 701 262 702 372 702 373 702 262 703 373 703 261 703 261 704 373 704 374 704 261 705 374 705 260 705 260 706 374 706 375 706 260 707 375 707 259 707 259 708 375 708 376 708 259 709 376 709 258 709 258 710 376 710 377 710 258 711 377 711 257 711 257 712 377 712 11 712 257 713 11 713 9 713 10 714 11 714 378 714 10 715 378 715 278 715 278 716 378 716 379 716 278 717 379 717 277 717 277 718 379 718 380 718 277 719 380 719 276 719 276 720 380 720 381 720 276 721 381 721 275 721 275 722 381 722 382 722 275 723 382 723 274 723 274 724 382 724 383 724 274 725 383 725 273 725 273 726 383 726 272 726 272 727 383 727 384 727 272 728 384 728 271 728 271 729 384 729 270 729 270 730 384 730 385 730 270 731 385 731 269 731 269 732 385 732 268 732 268 733 385 733 386 733 268 734 386 734 267 734 267 735 386 735 266 735 266 736 386 736 387 736 266 737 387 737 388 737 7 738 5 738 360 738 7 739 360 739 389 739 389 740 360 740 361 740 389 741 361 741 390 741 390 742 361 742 362 742 390 743 362 743 391 743 391 744 362 744 363 744 391 745 363 745 392 745 392 746 363 746 364 746 392 747 364 747 393 747 393 748 364 748 365 748 393 749 365 749 394 749 394 750 365 750 395 750 395 751 365 751 366 751 395 752 366 752 396 752 396 753 366 753 397 753 397 754 366 754 367 754 397 755 367 755 398 755 398 756 367 756 399 756 399 757 367 757 368 757 399 758 368 758 400 758 400 759 368 759 401 759 401 760 368 760 2 760 401 761 2 761 3 761 402 762 386 762 403 762 404 763 405 763 406 763 11 764 377 764 407 764 406 765 405 765 11 765 408 766 11 766 405 766 408 767 405 767 409 767 409 768 405 768 404 768 409 769 404 769 410 769 411 770 11 770 408 770 412 771 413 771 414 771 414 772 413 772 407 772 414 773 407 773 415 773 415 774 407 774 377 774 415 775 377 775 376 775 411 776 408 776 416 776 416 777 408 777 409 777 416 778 409 778 417 778 417 779 409 779 410 779 417 780 410 780 418 780 419 781 11 781 411 781 420 782 412 782 421 782 421 783 412 783 414 783 421 784 414 784 422 784 422 785 414 785 415 785 422 786 415 786 423 786 423 787 415 787 376 787 423 788 376 788 375 788 419 789 411 789 424 789 424 790 411 790 416 790 424 791 416 791 425 791 425 792 416 792 417 792 425 793 417 793 426 793 426 794 417 794 418 794 426 795 418 795 427 795 428 796 11 796 419 796 429 797 420 797 430 797 430 798 420 798 421 798 430 799 421 799 431 799 431 800 421 800 422 800 431 801 422 801 432 801 432 802 422 802 423 802 432 803 423 803 433 803 433 804 423 804 375 804 433 805 375 805 374 805 428 806 419 806 434 806 434 807 419 807 424 807 434 808 424 808 435 808 435 809 424 809 425 809 435 810 425 810 436 810 436 811 425 811 426 811 436 812 426 812 437 812 437 813 426 813 427 813 437 814 427 814 438 814 439 815 11 815 428 815 440 816 429 816 441 816 441 817 429 817 430 817 441 818 430 818 442 818 442 819 430 819 431 819 442 820 431 820 443 820 443 821 431 821 432 821 443 822 432 822 444 822 444 823 432 823 433 823 444 824 433 824 445 824 445 825 433 825 374 825 445 826 374 826 373 826 439 827 428 827 446 827 446 828 428 828 434 828 446 829 434 829 447 829 447 830 434 830 435 830 447 831 435 831 448 831 448 832 435 832 436 832 448 833 436 833 449 833 449 834 436 834 437 834 449 835 437 835 450 835 450 836 437 836 438 836 450 837 438 837 451 837 378 838 11 838 439 838 452 839 440 839 453 839 453 840 440 840 441 840 453 841 441 841 454 841 454 842 441 842 442 842 454 843 442 843 455 843 455 844 442 844 443 844 455 845 443 845 456 845 456 846 443 846 444 846 456 847 444 847 457 847 457 848 444 848 445 848 457 849 445 849 458 849 458 850 445 850 373 850 458 851 373 851 372 851 378 852 439 852 379 852 379 853 439 853 446 853 379 854 446 854 380 854 380 855 446 855 447 855 380 856 447 856 381 856 381 857 447 857 448 857 381 858 448 858 382 858 382 859 448 859 449 859 382 860 449 860 383 860 383 861 449 861 450 861 383 862 450 862 384 862 384 863 450 863 451 863 384 864 451 864 385 864 459 865 452 865 460 865 460 866 452 866 453 866 460 867 453 867 461 867 461 868 453 868 454 868 461 869 454 869 462 869 462 870 454 870 455 870 462 871 455 871 463 871 463 872 455 872 456 872 463 873 456 873 464 873 464 874 456 874 457 874 464 875 457 875 465 875 465 876 457 876 458 876 465 877 458 877 466 877 466 878 458 878 372 878 466 879 372 879 371 879 467 880 459 880 468 880 468 881 459 881 460 881 468 882 460 882 469 882 469 883 460 883 461 883 469 884 461 884 470 884 470 885 461 885 462 885 470 886 462 886 471 886 471 887 462 887 463 887 471 888 463 888 472 888 472 889 463 889 464 889 472 890 464 890 473 890 473 891 464 891 465 891 473 892 465 892 474 892 474 893 465 893 466 893 474 894 466 894 475 894 475 895 466 895 371 895 475 896 371 896 370 896 386 897 467 897 403 897 403 898 467 898 468 898 403 899 468 899 476 899 476 900 468 900 469 900 476 901 469 901 477 901 477 902 469 902 470 902 477 903 470 903 478 903 478 904 470 904 471 904 478 905 471 905 479 905 479 906 471 906 472 906 479 907 472 907 480 907 480 908 472 908 473 908 480 909 473 909 481 909 481 910 473 910 474 910 481 911 474 911 482 911 482 912 474 912 475 912 482 913 475 913 483 913 483 914 475 914 370 914 483 915 370 915 369 915 402 916 403 916 484 916 484 917 403 917 476 917 484 918 476 918 485 918 485 919 476 919 477 919 485 920 477 920 486 920 486 921 477 921 478 921 486 922 478 922 487 922 487 923 478 923 479 923 487 924 479 924 488 924 488 925 479 925 480 925 488 926 480 926 489 926 489 927 480 927 481 927 489 928 481 928 490 928 490 929 481 929 482 929 490 930 482 930 491 930 491 931 482 931 483 931 491 932 483 932 492 932 492 933 483 933 369 933 492 934 369 934 6 934 413 935 11 935 407 935 386 936 385 936 467 936 467 937 385 937 451 937 467 938 451 938 459 938 459 939 451 939 438 939 459 940 438 940 452 940 452 941 438 941 427 941 452 942 427 942 440 942 440 943 427 943 418 943 440 944 418 944 429 944 429 945 418 945 410 945 429 946 410 946 420 946 420 947 410 947 404 947 420 948 404 948 412 948 412 949 404 949 406 949 412 950 406 950 413 950 413 951 406 951 11 951 493 952 387 952 401 952 401 953 387 953 484 953 401 954 484 954 400 954 400 955 484 955 399 955 399 956 484 956 485 956 399 957 485 957 398 957 398 958 485 958 397 958 397 959 485 959 486 959 397 960 486 960 396 960 396 961 486 961 395 961 395 962 486 962 487 962 395 963 487 963 394 963 394 964 487 964 488 964 394 965 488 965 393 965 393 966 488 966 489 966 393 967 489 967 392 967 392 968 489 968 490 968 392 969 490 969 391 969 391 970 490 970 491 970 391 971 491 971 390 971 390 972 491 972 492 972 390 973 492 973 389 973 389 974 492 974 6 974 389 975 6 975 7 975</p>
        </triangles>
      </mesh>
    </geometry>
  </library_geometries>
  <library_visual_scenes>
    <visual_scene id="Scene" name="Scene">
      <node id="blocks" name="blocks" type="NODE">
        <matrix sid="transform">0.001 0 0 0 0 0.001 0 0 0 0 0.001 0 0 0 0 1</matrix>
        <instance_geometry url="#blocks-mesh" name="blocks">
          <bind_material>
            <technique_common>
              <instance_material symbol="Material_001-material" target="#Material_001-material"/>
            </technique_common>
          </bind_material>
        </instance_geometry>
      </node>
      <node id="Camera" name="Camera" type="NODE">
        <matrix sid="transform">0.6859207 -0.3240135 0.6515582 7.358891 0.7276763 0.3054208 -0.6141704 -6.925791 0 0.8953956 0.4452714 4.958309 0 0 0 1</matrix>
        <instance_camera url="#Camera-camera"/>
      </node>
      <node id="Light" name="Light" type="NODE">
        <matrix sid="transform">-0.2908646 -0.7711008 0.5663932 4.076245 0.9551712 -0.1998834 0.2183912 1.005454 -0.05518906 0.6045247 0.7946723 5.903862 0 0 0 1</matrix>
        <instance_light url="#Light-light"/>
      </node>
    </visual_scene>
  </library_visual_scenes>
  <scene>
    <instance_visual_scene url="#Scene"/>
  </scene>
</COLLADA>